<svg xmlns="http://www.w3.org/2000/svg" viewBox="0 0 195 249.24785" height="249.25" width="195">
 <g transform="matrix(.096683 -.011396 .011396 .096683 -34.211 21.794)">
  <path class="cls-1" fill="#fff" d="m1761.8 200.21c3.57-2.75 51.72-39.74 104.16-65.86 61.33-30.57 261.9-97.58 261.9-97.58l175.92 307.12s22.77 37.63 8.64 76.74c-20.14 55.83-156.14 412-156.14 412s-38.86 131.16-96.95 206.19c-109.3 141.1-208.1 265.2-208.1 265.2l-1.83 34.2s33.75-23.33 58.31-39.42 50.66 17.94 105.41 66.77 81.92 161.54 82.63 180.89-15.41 94.38-37.31 139.72-88.61 133.84-88.61 133.84 45.13 73.28 0.88 167.14-135.42 152.72-142.56 158.22-113.49 42.63-160.8 32.13c-19.69-4.36-102.54 66.42-137.43 94.43-44.12 35.41-151.71 97.27-187 121.38-66.63 45.55-238.33 85.69-373.89 63.79-101.1-16.34-193.64-44.2-230.33-58.57-36.73-14.3-126.61-64.5-164.72-117.6s-136.23-213.5-158.15-267.8c-21.92-54.21-93-131.23-97.91-138.22-31.93-45.13-84.87-113.54-84.87-113.54-57.21-86.75-54.41-163.64-44.91-237.18 4.9-38 23.45-57.73 110.41-124.81 38.35-29.58 87.62-44 119.13-65.54 43.51-29.74 65.07-64.47 84.74-94.52 45.77-69.89 80.71-127.8 150.13-292.3 0 0 85.9-161.91 130.33-207.57s205.41-124.39 400.58-118.46 265.49 8.59 302.17 23 39 15.58 39 15.58l7.52 4.1 37.75 25.57z"/>
  <g>
   <path d="m1795.4 276.93c3.24-2.5 33.77-60.11 83.29-79.66 50-19.74 227.48-87.47 227.48-87.47l133.2 256.57s16.67 25 3.85 60.52c-18.3 50.76-189.2 483.51-189.2 483.51s-42.89 110.44-99.53 175.22c-106.47 121.81-190.88 206.28-190.88 206.28l-20.82 206.48s82.89-99.17 105.2-113.81 55.15-42.53 104.9 1.85 74.47 146.84 75.13 164.48-14 85.77-33.92 127-88.58 143.33-88.58 143.33 41 66.63 0.8 151.94-139.17 128-145.65 133-60.24 16.85-103.25 7.28c-17.89-4-137 89.17-168.79 114.63-40.1 32.19-137.91 88.43-170 110.37-60.57 41.41-216.67 77.92-339.9 58-91.92-14.86-176-40.18-209.38-53.24s-115.07-58.64-149.71-106.92-123.82-194.07-143.73-243.37-84.55-119.31-89-125.66c-29-41-77.16-103.23-77.16-103.23-52-78.86-85.78-152.42-62.14-218.13 11.8-32.83 18.92-79.21 116.75-113.3s154.08-97.78 185.34-145.51c41.61-63.53 73.37-116.2 136.47-265.72 0 0 97.81-191.75 138.19-233.25s186.66-113.12 364.14-107.7 241.35 7.81 274.69 20.87 110.35 72.64 110.35 72.64l6.19 5.4 21.29 16.38 194.39-518.78z" class="cls-2" fill="#002b5c"/>
   <path fill="#fff" d="m456.85 1595.9c-3.2491 0.068-6.213 0.7277-8.793 2.1133-11.4 6.13-28.77 52.11-18.25 73.56 90.11 183.91 117.06 269.15 182 376.81 49.51 82.1 136.65 140.28 136.65 140.28 21.48 14.46 141.65 56.28 257.28 65.35s132.96-12.05 306.13-109.41 156.17-123 156.17-123c21.69-32.18 24.791-125.17 26.371-160s-39.74-31.41-39.74-31.41c-9 1.77-92.67-6.1289-92.67-6.1289l0.029-0.051c-99.23-11.8-268.81-49.561-278.63-80.801-19.88 19.31-49.831 28.441-59.531 31.311-70.04-0.29-126.94 33.25-126.94 33.25-135.15 29.29-210.02-24.18-236.15-48s-36.688-77.729-36.318-80.609-100.45-50.641-117.56-61.881c-16.551-10.879-35.967-21.679-50.047-21.383zm75.877 58.363a524.6 524.6 0 0 1 2.4902 93.77c-3.42 49.15-9.671 86.32-10.791 94.98-5 38.65-7.6392-155.77 8.3008-188.75zm106.32 137.83a524.42 524.42 0 0 1 2.4883 93.77c-3.42 49.19-3.0597 136.84-4.1797 145.46-5 38.65-24.629-171.08 1.6914-239.23zm714.2 41.99c1.7766 0.1092 2.7439 5.7413 1.5683 22.65-3.42 49.19-9.7003 86.35-10.82 95v-0.031c-5 38.65-16.42-64.9-0.4805-97.91 0 0 6.3407-19.918 9.7325-19.709zm-562.02 1.0098s-0.26969 80.659-5.4297 129.7c-5.16 49.04-8.801 136.53-9.291 145.22-2.59 43.34-18.659-160.18 14.721-274.92zm176.82 66.6a524.32 524.32 0 0 1 2.4902 93.76c-3.44 49.18-9.1498 172.55-10.26 181.16v0.031c-5 38.65-18.56-206.8 7.7695-274.95zm369.69 107.48c2.84 0.35 12.651 36.22 11.531 44.73s-15.381 29.74-15.381 29.74l-4.8398-29.451 8.6895-45v-0.02z"/>
   <path fill="#e31937" d="m2097.3 143.63-79 30 4.7305 48-23.85-41.771-29.84 10.76 16.08 84.561-37.522-77.08s-0.4786 0.83023-48.309 18.49c-48.58 17.97-71.23 76.279-71.23 76.279l0.02-0.0195-213.05 541.85 94.738 250.21c18.86-10.7 38.861-63.6 38.861-63.6 2.05 29.47-26.65 104.6-26.65 104.6-7.1 20.99 36.83 121.49 36.83 121.49l80.131-83-44.541 0.09 55.33-10.381 12.779-14.43-65.68-5.5606 94.83-25.379s52.301-58.15 68.301-81.83c16.26-24.16 39.84-73.91 39.84-73.91s-86.04 27.653-116.29 38.908c25.057-12.672 86.697-47.119 86.697-47.119s-47.221 6.674-57.74 10.135c4.4808-4.0383 14.65-15.703 14.65-15.703-10.79 4.47-50.38 16.85-50 14s160.93-85.852 160.93-85.852l48.66-128.76-39.92 8.75 52.9-41.32 19.69-51.4-88.93 38.18s102.14-67.17 102.49-70-96.42 34.281-96.42 34.281l106-63 33.49-90.551-93.121 21 104.43-52.359 33.219-83-10.23-20.67c-17.62 0.56-91.619 14.619-91.619 14.619l78.891-40.369-12.41-22.75c-17.44-0.75-79.34 16.25-79.34 16.25l69-38-77.871-154.6zm-143.03 112.91s-0.011 0.0514-0.012 0.0527c11.434 13.166 12.841 58.559 12.881 58.549-21.362-26.021-12.958-58.256-12.881-58.549-0.01-0.007-0.012-0.0147-0.018-0.0215l0.027-0.0312zm65.682 56.65h0.02l7.5 9.7402c-23.89 83.05-233 583.11-233 583.11 26.6-92.93 221.86-587.47 225.48-592.85zm157.93 90.488c1.2949 0.0113 2.439 0.099 3.4199 0.27149 0.01 0.05-157.58 67.252-190.11 70.352-38.527 3.6716 146.55-70.973 186.69-70.623zm-354.55 30.133c17.38 12.46 46.91 168.11 46.91 168.11-29.5-31.54-46.91-168.11-46.91-168.11zm266.06 159.45c0.6479 0.006 1.22 0.0521 1.7109 0.13867 0 0-78.8 33.62-95.07 35.17-19.259 1.8309 73.274-35.492 93.359-35.309zm-352.5 90.74c17.32 12.49 31.861 103.43 31.891 103.41-29.5-31.56-31.9-103.41-31.9-103.41zm-511.56 11.596c-11.307-0.19511-29.248 9.9648-29.248 9.9648-44.13 19.85-121 106.29-121 106.29s-124.55-7.3495-170.55-13.27c-46-5.92-77 30.949-77 30.949-81.09 103.42-159.47 281.99-187.47 343.71-30.63 67.57-56.8 100.72-70.75 129.57s-69.74 77.1-96.07 100-93.649 46.32-109.13 53.07c-15.48 6.75-79.15 24.978-96 110.24-8.46 42.68 25.54 118.63 43 153s81.999 99.661 111.31 144.31c29.31 44.65 55.44 68.48 98 157.18s107.66 176.63 135.35 210.55c42.87 52.57 158.62 95.4 220.21 111.31 113.04 29.18 206.42 29.59 289.8 17s168.01-68.821 216.8-96.131 263.91-189.31 263.91-189.31 34.61 4.28 61 2c34.63-2.96 82.17-25.819 99.83-38.199s64.14-44.33 73.77-119-29.84-142.67-29.84-142.67c19.83 21.87 26.59 14.1 40.83 1 6.82-6.3 51.651-72.18 81.721-135.44s13.27-80.05 6.2304-116c-7.04-35.95-50.031-110.1-62.371-127.75s-26.34-10.711-26.34-10.711c-36.7 12.8-137.32 113.67-137.32 113.67l-0.01 0.1094c-11.67 10.63-7.4999-34.968-5.6699-43.488 0 0-49.219-141.72-108.88-222.43-58.89-79.64-216.63-346.25-216.63-346.25-12.5-16.17-33.229-36.38-73.279-43s-197.77-23.329-215-25.559-9.8203-14.41-9.8203-14.41c15.02-25.83 86.641-83 86.641-83s28.91-20.39 19.42-26c-1.4829-0.87656-3.3496-1.2686-5.4434-1.3047zm486.27 59.635c17.34 12.46 22.44 86.119 22.44 86.119-29.51-31.54-22.44-86.119-22.44-86.119zm326.67 43.797c1.2955 0.011 2.4403 0.10125 3.4219 0.27344 0 0-157.62 67.259-190.11 70.359-38.527 3.6716 146.53-70.973 186.69-70.633zm-257.44 143.26c0.06 0-3.12 24.421-17 41.611 0 0 5.32-30.001 17-41.611zm-920.48 16.932 400.32 42.93-17.309 21.129-382.74-43.58-0.26953-20.479zm-59.16 50.77 35.19 179.7 21.39 128.3s60.141-36 70.221-46.41c0 0-44.239 58.9-120.36 95.42-62.43 29.96-95.101 50.861-108.36 70.721-12.6 18.85-18.09 26.549-39.32 123.37-26.07 118.93-3.6588 138.17 5.2812 161.24 13.06 33.66 47.399 41.17 88.359 40.66s83.25 10.809 141.52-10.881 88.761-9.0286 100.62-10.389c11.86-1.36 65.129-29.531 65.129-29.531s-31.689-71.259-28.809-70.879c0 0-18.811-57.921 20.559-23.631s51.42 76.73 52.81 88.58c0 0 233.92 65.25 329.09 74.6 0 0 66.38 5.6604 75.48 71.07s22.33 143.04-39.67 216.79-262.05 153.06-288 173.07-81.05 35.589-156.4 35.289c-93.41-0.37-235.22-35.26-283.14-68.67-23.39-16.3-92.769-40.021-143.13-135.3-56.33-106.55-143.15-293.04-179.83-370.78 0 0-32.611 48.44-32.701-18.74s21.051-109.59 38.131-121.59c24.95-17.57 65.73-9.4004 79.58-0.4004 57.3 37.24 121.74 63.76 121.74 63.76s8.399-51.399 16.209-89.799c7.53-36.98 29.21-113.03 67-134.43 0 0 22.711-17.51-6.3789-18.34l0.0391 0.02c-34.63-2.68-107.74-4.1507-125.52-0.2207 3.27-2.93 14.19-13.06 40.67-66.24 33.82-64 82.98-167.36 103.6-214.36s54.54-83.48 79-92zm528.92 80.336c6.2637-0.1324 12.742 1.6617 17.438 7.7442 12.52 16.22 68.44 125.64 86 238.85s20.669 248.23 54.109 328.45c0 0-163.29-118.35-215.27-143.43-87.5-42.2-198.6-67.9-198.6-67.9s111.2-137.48 127.51-173.31 70-157.41 108.49-184.56c0 0 9.8438-5.5743 20.283-5.795zm576.66 405.23c9.0894 0.2276 16.32 5.4702 1.8867 28.24-25.66 40.48-27.43 31.52-27.43 31.52s31.87 115.05 25.67 140.54-32.63 71.712-76.91 7.6016c0 0 23.631 20.57 43.471 2.6797s-13.072-102.46-9.9317-126.83c0.38-2.89-41.389 26.769-56.689 77.359 0 0-67.46 70.111-37.9-45.779l-0.01 0.01c14.11-55.28 92-102 122.58-112.66 0 0 8.1941-2.8567 15.264-2.6797zm-822.76 246.83s-38.35 31.759-69.27 31.629c-37.64-0.16-88.529 19.221-88.529 19.221v0.02c12.24 5.93 118.48 42.5 209.58 49.93 96.52 7.87 233.84-18.42 233.84-18.42s-78.321-7.7602-184.14-35.49-101.48-46.889-101.48-46.889z"/>
   <path fill="#fff" d="m1225.9 695.35c-2.2708 0.0217-5.1023 0.30625-8.5625 0.89062-29 4.89-81.55 47.69-142.25 115.51l-152.68-12.24s-57.35-16.51-97.42 32.92c-52.83 65.21-107.7 174.75-107.7 174.75l126.42-151.76 12.09 107.71 396 53.309 65.779-90.08s45.16 2.5805 76.94 150.73c10.1 47.09 14.191 33.311 102.44 137.79 88.25 104.48 236.53 309.67 236.53 309.67l0.039 0.01s23.441-39.141 14.861-67.111c-13-42.28-43.85-113.43-81.77-180.59-9.09-16.13-124.35-191.54-124.35-191.54l-112.8-185.78s-17.601-43.998-79.791-53.898c-38.2-6.1-200.41-24.16-200.41-24.16s-37.238-0.28961-21.318-19.35c17.94-21.52 35.999-38.66 59.779-58.9 13.939-11.883 65.067-48.217 38.271-47.961zm-437.26 345.15c-29.56 25.39-167.85 305.27-175.83 321.77l113.19 1.6c2-18.13 17.26-84.429 38.65-97.219l40.469 8-6-44.56c5.4069-8.0605 15.799-14.387 22.58-15.986-4.5522-32.009-33.059-173.62-33.059-173.62zm33.059 173.62c0.00022 0-0.00023 0 0 0.01l0.0508-0.02c-0.0164 0-0.0343 0.01-0.0508 0.014zm506.15-98.154c-50.41 28.53-111.75 187-119.72 203.53s-92.191 125.29-92.191 125.29 44.071 10.1 79.051 21.82c33 11.08 102.19 45.34 102.19 45.34-7-23.44 11.4-106.62 37.77-127.06l51.451 11.5-23.281-44.41c4-5.42 11.37-19.43 41-25l0.012 0.051c-8.79-100.44-76.281-211.06-76.281-211.06z"/>
   <path fill="#002b5c" d="m852.85 827.79c-5.894-0.064-12.5 8.5645-12.5 8.5645l-147.93 207.25s-18.72 39.009-28 65.559 8.2191 4.0008 28.619-18.199 122.32-178.39 122.32-178.39c16.5-37.3 18.301 5.2812 18.301 5.2812 0.92 38.08 24.4 138.95 37.51 184.43s13.49-2.6504 13.49-2.6504c0.45-14.55-19.701-231.78-23.551-258.55-1.4438-10.039-4.7233-13.206-8.2598-13.244zm476.59 59.734c-5 0.1775-9.8381 5.2813-16.123 13.361-80.5 103.52-109.4 170.12-139.3 208.32l-0.029 0.051c-5.42 6.92-14.89 36.05-24.15 62.59s8.2506 3.9711 28.641-18.209 121.59-172.64 121.59-172.64c25.49-39.1 40-27 40-27 23.21 35.09 65.229 261.43 89.469 302.09 13.21 22.16 15.361-17 15.361-17 1.4657-6.014-2.5054-32.677-10.27-69.137 43.612 47.516 156.4 174.63 204.79 269.46 0 0 39.819 189.1 58.709 223.68 0 0 11.671 45.29 20.121 2.5801s15.299-141.1 15.299-141.1-244.26-349.95-320.97-444.46c-18.091-65.682-41.777-135.69-66.023-176.38-6.935-11.62-12.096-16.369-17.096-16.191zm-423.13 898.73-23.42 16.801 0.01 0.01s184.42 52.999 239.36 57.199c0 0 12.23-4.2797 11.4 24.82s0.4906 188.41 3.6406 209.24 13.83-195.61 11.08-210.25c-3.79-20.26 15.708-19.881 15.898-21.311 0 0 169.92-4.36 200.32-13.58s77.87-26.449 85.42-28.379l-60 1s-176 29.23-246.58 21.35c-83.55-9.33-185.17-35.39-237.13-56.9z"/>
  </g>
 </g>
</svg>
