<svg xmlns="http://www.w3.org/2000/svg" height="249.3" viewBox="0 0 230 249.2971" width="230"><g transform="matrix(1.25 0 0 -1.25 -650.38 672.48)"><g><path d="m619.36 397.26 11.211 19.688c0.82496-7.0857 3.5215-13.545 7.7529-18.431-6.4952-0.0554-12.854-0.47537-18.963-1.2577m-38.927-8.5864 6.7596 24.777 1.5988-17.024 4.1824-4.1078c-4.2485-1.085-8.6738-2.3747-12.541-3.6452m-18.373 75.805c-3.9244 3.8115-8.207 5.7598-12.743 5.7598-0.0362 0-0.0682 0-0.0895-0.006 0.62032 7.0516 5.6085 13.219 12.4 15.527-0.79512-4.176 0.44765-7.7785 3.4874-10.172l-3.0547-11.108zm115-67.071-0.69493 0.69706-5.9432 5.9517s-1.4794 0.15561-3.059 0.32828c-1.5966 4.4595-1.4474 10.356-0.41355 13.896l6.297 22.656 1.2811 4.6002 1.5284 5.4827 1.2726 4.5895 1.7501 6.2864 0.7738 2.7754 12.411 44.618c0.0938 0.31549 0.18333 0.66082 0.24728 0.98697 0.004 0.0128 0.0234 0.0171 0.0256 0.0234h0.017v0.0128c0.20038 0.17906 0.7333 0.56063 0.99977 0.75249 2.2809 1.6222 6.0646 4.3188 7.9214 11.042l1.9441 7.0431-7.964 7.9618-36.173-8.8508-15.077-26.459-1.3622-2.3896-23.227-40.756-0.9422 9.8548c-1.0744 11.46-5.4891 21.421-12.79 28.812-0.006 0.0107-3.9926 3.9948-4.7004 4.7174h-0.0149l-0.11938 0.13004c-1.1021 1.0786-2.2745 2.1104-3.4917 3.0654-9.1258 7.1987-21.057 10.516-33.617 9.3325-11.5-1.0808-22.178-6.4952-30.102-15.248-7.8574-8.6909-12.191-19.763-12.191-31.174 0-11.385 3.7134-21.366 10.46-28.113l4.3273-4.3231c4.5064-4.5021 10.108-7.2541 15.61-7.7039l-3.1549-11.454-0.75888-2.7648-3.2188-11.688-0.56703-2.1573c-0.51587-2.136-0.8271-2.8948-0.96352-3.1656-3.1314-2.0592-7.0857-5.7534-8.7506-11.822l-2.9417-10.573 8.6461-8.6483 2.9886 1.7778c1.7949 1.0594 4.37 2.541 7.4481 4.2058l-1.2364-4.3849-0.48176-0.27711c-8.5268-4.8112-16.781-10.369-24.553-16.525l-3.4832-2.7691 6.5954-8.4884 3.5557 2.8202c7.3607 5.828 15.171 11.089 23.229 15.636 0 0 0.22596 0.12364 0.46897 0.26433l9.7972-2.7499 0.58834 0.27712c1.2513 0.59261 2.7456 1.2939 4.3508 2.0358 1.117 0.51161 2.315 1.0424 3.6026 1.6094 17.757 7.7636 51.615 19.262 99.963 12.342 0.93581-0.13643 1.8631-0.26006 2.8074-0.40715 0.99123-0.15561 1.9484-0.25367 2.9566-0.42634l1.5774-0.26433 1.4346 5.5211 9.7269-0.83988 1.3238 8.531-8.9552 3.6622 1.5178 5.6746-4.6108 0.99336c-0.98484 0.2153-1.9164 0.40076-2.8352 0.57982-0.28351 0.0618-0.6054 0.13003-0.88252 0.18546l-0.17053 2.6881z" fill="#0a2351"/><path d="m217.2 7.3066l-1.56 5.6604c-1.78 6.475-5.22 8.918-7.72 10.709-1.82 1.284-2.82 2.003-3.39 3.937l-32.02 115.09c-2.11 7.24-1.62 18.64 2.83 25.27 1.29 1.91 2.8 3.19 4.52 3.91-3.62-6.75-3.91-17.05-1.96-23.77l32.04-115.08c0.56-1.947 1.57-2.655 3.38-3.942 2.51-1.796 5.95-4.241 7.73-10.719l1.55-5.65-5.4-5.4124zm-120.21 41.468c8.568 8.389 13.708 19.761 14.978 33.194 0 0 2.57 27.101 4.06 42.761l4.21-7.38c-1.38-14.37-2.86-29.977-2.86-29.969-1.23-13.123-6.17-24.279-14.38-32.606-0.99-0.994-4.966-4.981-5.992-5.988-0.008 0-0.011 0-0.016-0.012zm-43.154 4.237c-0.966-0.007-1.937 0.036-2.912 0.129-14.506 1.364-25.879 13.656-25.879 27.978 0 3.957 1.38 7.76 3.848 10.758 0.756-0.33 1.556-0.534 2.347-0.766-0.05-0.013-0.098-0.013-0.148-0.037-0.413-1.463-0.651-2.992-0.651-4.549 0-14.317 11.375-26.613 25.895-27.98 4.62-0.432 9.148 0.264 13.297 1.93l2.51-0.618c-5.088-4.36-11.547-6.8-18.307-6.845zm101.81 40.832l-43.69 76.616c-6.85 0.85-15.576 2.49-20.958 3.92l5.506 5.41c4.642-1.25 15.192-3.19 20.872-3.91l30.25-53.05c2.13-7.71 5.2-18.76 8.02-28.986zm-71.084 11.796l-20.959 76.81c-15.542 5.29-33.202 14.49-43.093 20.41l5.42 5.41c11.433-6.77 27.465-15.15 43.045-20.31l17.343-63.52-1.756-18.8zm-65.837 12.84c0.905 0.9 4.494 4.48 5.421 5.4 5.119 5.13 11.514 8.07 17.512 8.07 1.951 0 3.839-0.31 5.598-0.89l3.101-11.27c-3.322 4.12-8.403 6.76-14.091 6.76-6.017 0-12.401-2.95-17.541-8.07zm126.97 11.31c-0.37 1.31-0.62 2.23-0.74 2.68 0.12-0.46 0.38-1.38 0.74-2.68zm7.04 41.95c1.05 1.08 4.67 4.63 5.41 5.41 1.15 1.2 2.4 2.23 3.71 3.19-5.89-0.33-11.81-0.49-17.81-0.28l-1.91 2.27c7.61-0.34 15.16-0.33 22.66-0.1 6.53 3.58 14.49 4.49 23.15 2.43l1.77-0.42c3.3 0.45 6.61 0.88 9.86 1.48l0.05-0.19c-2.9-0.62-5.85-1.13-8.78-1.66l-0.36-5.66-5.42-5.42 0.37 5.77-2.88 0.7c-11.91 2.81-22.48 0.14-29.82-7.52zm-11.59 8.44c-2.48 0.11-4.97 0.26-7.46 0.45-1.49 0.12-2.92 0.26-4.39 0.4l-7.26 9.7c3.7-0.48 7.41-0.88 11.16-1.19l7.95-9.36zm-14.73 1.15c-3.95 0.42-7.88 0.94-11.75 1.55l-6.68 10.16c3.65-0.71 7.34-1.34 11.06-1.88l7.37-9.83zm14.77 2.01l-6.06 7.14 7.39 6.22 11.55-6.91-12.88-6.45zm-29.4 0.02c-3.91 0.68-7.8 1.44-11.65 2.28l-6.017 10.52c3.629-0.94 7.267-1.79 10.937-2.56l6.73-10.24zm-14.462 2.92c-3.866 0.91-7.695 1.9-11.484 3l-5.369 10.89c3.546-1.16 7.13-2.23 10.752-3.22l6.101-10.67zm59.132 2.48l1.92 1.12-1.82 1.08c18.07 0.31 35.97 2.06 52.99 6.11l0.05-0.23c-17.11-4.66-34.78-7.79-53.14-8.08zm-73.407 1.35c-3.8 1.14-7.562 2.37-11.282 3.7l-4.685 11.17c3.485-1.37 6.987-2.67 10.539-3.88l5.428-10.99zm50.337 1.63c-3.69 0.31-7.35 0.69-10.98 1.18l10.34 7.74c0.83-0.07 1.65-0.17 2.49-0.23 2.61-0.21 5.24-0.35 7.87-0.46l-9.72-8.23zm-13.97 1.6c-3.67 0.53-7.31 1.14-10.9 1.84l10.77 7.09c3.41-0.52 6.83-0.96 10.3-1.32l-10.17-7.61zm-50.359 1.44c-3.718 1.38-7.41 2.83-11.041 4.39l-3.999 11.48c3.39-1.59 6.81-3.1 10.274-4.53l4.766-11.34zm36.449 0.98c-3.63 0.76-7.213 1.6-10.762 2.52l11.222 6.42c3.37-0.71 6.78-1.36 10.2-1.93l-10.66-7.01zm44.93 1.82c-2.24 0-4.48 0.05-6.74 0.14l2.54 2.13c16.98-0.5 33.79 0.25 49.91 3.19l0.06-0.19c-14.86-3.22-30.1-5.29-45.77-5.27zm-58.616 1.49c-3.565 0.97-7.11 2.03-10.595 3.17l11.585 5.71c3.326-0.93 6.682-1.78 10.056-2.56l-11.046-6.32zm-36.469 1.27c-3.631 1.6-7.221 3.29-10.751 5.06l-3.27 11.69c3.269-1.81 6.606-3.53 9.982-5.16l4.039-11.59zm22.995 2.85c-3.507 1.19-6.963 2.47-10.381 3.82l11.908 4.99c3.269-1.14 6.574-2.19 9.889-3.17l-11.416-5.64zm-13.176 4.96c-3.416 1.4-6.792 2.89-10.123 4.45l12.185 4.24c3.185-1.33 6.408-2.59 9.672-3.77l-11.734-4.92zm-12.871 5.74c-3.307 1.62-6.594 3.31-9.821 5.08l12.426 3.48c3.112-1.52 6.246-2.97 9.43-4.36l-12.035-4.2zm-13.606 4.67c-10.546 5.95-20.546 12.71-29.939 20.17l1.34 1.75c9.339-7.42 19.289-14.14 29.756-20.05l-1.157-1.87z" transform="matrix(.8 0 0 -.8 520.31 537.99)" fill="#b6922e"/><path d="m576.01 489.61-9.3432-2.2937-0.43273-1.5604c-1.5796-5.6682 2.2724-7.235 3.7155-7.8212 0.11938-0.049 0.27499-0.11085 0.41142-0.16628-0.032-0.16627-6.7042-24.438-6.7042-24.438-0.42634 3.0824-1.8546 5.9261-4.0907 8.1665-2.735 2.7435-6.3823 4.2421-10.247 4.2421-1.3792 0-2.7179-0.25793-4.0225-0.64164-0.63311-0.18332-1.2726-0.34533-1.878-0.60966-1.974 2.3982-3.0782 5.4401-3.0782 8.6035 0 11.46 9.098 21.293 20.703 22.385 6.2394 0.59261 12.323-1.3877 16.975-5.374l-2.008-0.49242zm84.568-85.994c-3.5642 5.2994-3.9607 14.421-2.2724 20.213l25.619 92.07c0.46045 1.5497 1.2556 2.1232 2.7158 3.1528 1.9974 1.4304 4.7473 3.3851 6.1755 8.5672l1.2492 4.5256-31.837-7.7956-45.735-80.239-3.3702-5.9026c-1.1874 12.528-3.2466 34.207-3.2466 34.207-1.0126 10.746-5.1267 19.844-11.978 26.554-0.98484 0.96139-2.0251 1.8738-3.1229 2.7371-8.2155 6.4825-19.015 9.4626-30.413 8.3946-10.369-0.98697-20.017-5.8771-27.183-13.79-7.1198-7.8659-11.04-17.864-11.04-28.164 0-10.177 3.253-19.04 9.1471-24.939 4.1099-4.0992 9.2174-6.4569 14.033-6.4569 4.5512 0 8.6163 2.1104 11.274 5.4038l-2.4813-9.017-9.1215-33.161c-0.4306-1.5114-1.409-5.4145-3.0782-6.5315-1.9953-1.3387-5.5168-4.4723-6.96-9.697l-2.2383-8.0492c7.9128 4.7387 22.042 12.097 34.476 16.329l16.766 61.444 1.4048-15.037 3.7432-39.95c4.306 1.1468 11.285 2.4557 16.768 3.1336l34.953 61.297c-2.2596-8.1793-4.711-17.024-6.4185-23.191-0.63524-2.2958-1.1596-4.1824-1.5433-5.5701-0.28778-1.036-0.49668-1.7757-0.59048-2.1402-0.0512-0.15988-0.0789-0.27073-0.0789-0.27073-3.2508-11.522-0.78659-23.747 6.297-31.148 5.8749-6.1265 14.336-8.2603 23.858-6.0156l2.3065 0.56276-0.29204 4.613-2.3683 0.24727c-0.63311 0.0682-1.23 0.25367-1.8077 0.48603-1.3686 0.57342-2.5815 1.5988-3.609 3.1272" fill="#fff"/><path d="m568.9 394.17 20.39 74.596 6.2736-66.899c2.2404 0.46898 7.6357 1.6094 12.603 2.2894l45.219 79.301-14.527-52.465c-5.0031-17.653 4.6258-38.989 26.846-33.732-10.236 1.085-12.899 17.535-10.064 27.305l25.629 92.093c1.6009 5.4465 6.7489 3.9287 8.8913 11.688l-26.128-6.3951-52.821-92.686-4.0736 42.879c-2.2702 24.086-21.048 37.219-42.523 35.201-20.112-1.8929-35.721-19.418-35.721-39.204 0-19.132 11.79-28.637 20.422-28.637 6.4803 0 11.743 5.261 11.743 11.743 0 6.4825-5.2631 11.737-11.743 11.737-2.3896 0-4.5959-0.70772-6.4484-1.9249-3.2466 2.9737-5.2781 7.2605-5.2781 12.029 0 12.916 10.042 23.89 23.195 25.128 8.9787 0.84415 17.326-3.0654 22.523-9.6587l-14.414-3.5407c-1.7672-6.3652 5.5594-2.7882 4.0651-8.2475l-21.94-79.55c-2.4578-8.9424-6.7937-4.4723-9.8463-15.721 7.8872 4.3849 17.81 9.0725 27.731 12.669" fill="#0a2351"/></g></g></svg>
