<?xml version="1.0" encoding="UTF-8" standalone="no"?>
<svg xmlns:rdf="http://www.w3.org/1999/02/22-rdf-syntax-ns#" xmlns="http://www.w3.org/2000/svg" height="139.76" width="150" version="1.1" xmlns:cc="http://creativecommons.org/ns#" xmlns:dc="http://purl.org/dc/elements/1.1/" viewBox="0 0 149.99899 139.76587">
 <g transform="matrix(.49333 0 0 .49285 .52223 .49292)">
  <path d="m11.15 128.87c16.815-88.42 85.911-120.27 139.99-120.67 41.01-0.3069 123.03 24.513 139.96 120.69-0.0383 0-139.99 139.9-139.99 139.9 0-0.08-139.5-139.48-139.96-139.92m139.94-127.87c-57.974 0.42133-132.05 34.567-150.07 129.34l-0.02003 0.2 150.09 149.99 149.91-149.84c-18.04-103.44-105.96-130.04-149.91-129.69" fill="#fff"/>
  <path fill="#e81828" d="m151.14 8.2038c-54.079 0.4022-123.18 32.25-139.99 120.67 0.45962 0.44047 139.96 139.84 139.96 139.92 0 0 139.96-139.9 139.97-139.9-16.91-96.192-98.93-121.01-139.94-120.69"/>
  <path fill="#fff" d="m275.93 126.14c-7.64-50.41-53.99-104.32-124.77-104.95h-0.0192-0.0191c-70.915 0.65-117.53 54.54-125.38 104.95l-0.135 0.8 125.54 125.06 124.92-125.06-0.13405-0.80434z"/>
  <path fill="#284898" d="m151.16 24.424c-68.768 0.632-114.04 52.57-122.05 101.41 1.21 1.21 119.79 119.33 122.03 121.55 2.24-2.22 120.25-120.34 121.44-121.55-7.81-48.836-52.8-100.77-121.42-101.41"/>
  <path d="m188.62 40.799c-0.13405 0.01915-10.688 4.002-10.688 4.002l-27.078-0.01953h-26.008c0-0.0383-10.398-3.9648-10.398-3.9648-0.1532-0.01915-13.77 0.03906-13.77 0.03906h-0.21093l-4.5957 7.4316s-0.05859 29.568-0.05859 30.334h-0.57422c-1.69-1.8-3.853-3.332-6.419-4.519-11.319-5.209-27.31-2.835-35.641 5.304-5.4005 5.2856-8.0427 11.721-7.0469 17.236 0.59368 3.3897 2.584 6.0704 5.4375 7.3535 3.8876 1.7427 6.8365 1.0149 8.6367 0.0957 1.2257-0.63198 2.2218-1.512 3.0645-2.5078v23.287c-2.9875 3.4855-4.748 7.085-4.748 10.283 0 0.97669 0.13304 1.9355 0.43945 2.8164 0.91924 2.8152 3.2557 4.7489 6.3965 5.2852 3.5238 0.63198 7.3551-0.47838 10.285-2.9297 2.8343-2.3939 4.4609-5.8032 4.4609-9.3652v-18.174c5.9559-2.2598 11.645-5.0175 15.398-9.5371v32.422c-0.01915 0.24896-0.05859 0.4987-0.05859 0.72851 0 2.2598 1.0154 4.2318 2.873 5.4766 2.3939 1.647 5.9177 1.7617 8.5605 0.28711 2.279-1.2831 3.5625-3.4853 3.5625-6.0898 0-0.13405-0.00043-0.26867-0.0195-0.42188 0 0 0.0195-14.517 0.0195-15.264 0.0575-0.0383 0.11443-0.0571 0.17188-0.0762l0.0391 0.11523v14.344c0.0575 3.8302 2.2399 6.722 5.8594 7.9668-0.0575 0.28727-0.13395 0.59397-0.1914 0.90039h-47.57l-0.17383 0.0195c-3.4855 0.45962-5.8594 3.0447-5.8594 6.377 0 0.11491 0.01953 0.22885 0.01953 0.34375 0.17236 3.4089 2.815 6.0722 6.1855 6.168h42.84c-4.1749 7.7178-8.1765 11.758-11.26 14.822-3.7153 3.6578-6.2637 6.1861-6.2637 12.41 0 0.53621 0.02029 1.0723 0.05859 1.666l0.01953 0.36328h49.715c0.0766-2.1066-0.19086-3.7156-0.45898-5.1328 0 0-0.3457-3.6566-0.3457-3.6758 0.0958-1.264-0.47735-2.069-1.2051-3.084-0.63198-0.88095-1.3604-1.8766-1.6094-3.332l-0.74804-1.0723s-1.0332-2.0496-1.0332-2.0879c0.0575-0.70858-0.24931-1.1871-0.80468-1.9531 0 0-1.207-2.3758-1.207-2.4141-0.28727-1.6661 0.0967-2.7378 0.4414-3.6953 0.28727-0.84264 0.55441-1.5509 0.34375-2.7383v-0.0762h1.7441c0.0574 0.30641 0.0957 0.61275 0.0957 0.88085 0 1.0342-0.28816 1.8188-0.53711 2.5274-0.22981 0.65113-0.43946 1.2262-0.43946 1.9922 0 0.2298 0.0183 0.47835 0.0566 0.76562l0.91993 1.7422c0.53621 0.74688 1.1484 1.5705 1.1484 2.7578 0 0.11491-0.00033 0.23079-0.0195 0.3457l0.55664 0.72657s1.2242 2.05 1.2051 2.0117c0.19151 1.0342 0.72859 1.7992 1.3223 2.6035 0.78518 1.0916 1.686 2.3365 1.5137 4.2324l0.32422 3.2363c0.28726 1.4938 0.57464 3.1988 0.49804 5.4394h0.13477v2.3555c-0.49792 0.40218-3.2569 2.6629-3.5059 6.2441 0 0.15321-0.0176 0.32569-0.0176 0.49805 0 2.413 1.2257 4.8257 3.6387 7.1621l-0.11523 5.4199v0.40234h11.088v-6.1094c2.2981-2.0683 3.5234-4.462 3.5234-6.875 0-0.17236-0.00043-0.32569-0.0195-0.49805-0.24897-3.5812-2.9868-5.842-3.5039-6.2441v-2.3555h51.611l0.0195-0.36328c0.0383-0.59367 0.0566-1.149 0.0566-1.666 0-6.224-2.5464-8.7523-6.2617-12.41-3.0641-3.0641-7.0673-7.0853-11.242-14.822h28.65c2.5088 3.2365 5.8028 4.9974 9.3457 4.7676 3.5429-0.24896 6.6457-2.4318 8.082-5.6875l0.11523-0.24804 0.0566-0.25c0.99586-4.1366-0.17126-6.7219-1.3203-8.1582-2.5279-3.1216-6.7428-3.3703-8.4473-3.332h-14.209c1.3597-0.21066 2.6817-0.55557 3.9648-1.0918 2.413-0.9767 4.4225-2.4905 6.2227-4.1758 6.8177 5.9942 12.276 5.7854 15.666 4.5215 5.0558-1.8959 8.3876-7.3548 8.9238-11.549 0.13405-0.99584 0.21094-1.9339 0.21094-2.834 0-9.4605-7.2571-14.746-13.711-19.457 0 0-0.74779-0.53614-1.2266-0.88085-0.28727-0.45963-2.2598-3.7539-2.2598-3.7539l-9.6524 6.8945 0.0957 1.627c0.0383 0.53622 0.0586 1.0532 0.0586 1.5703 0 3.7919-0.95882 7.0092-2.7207 9.5371 1.4746-2.6428 2.0117-5.0552 2.0117-6.9512 0-1.7619-0.38266-3.1211-0.66993-3.9062-2.0108-5.3814-7.9287-8.6563-14.076-7.7754-2.1258 0.30642-7.5086 1.818-11.186 8.291-0.84263-3.5046-2.3921-9.8815-2.4688-10.207 0.21067-0.21066 3.2364-3.2563 5.3047-5.3438l13.691-0.03711v-19.496h-4.5371v-30.125c-0.0575-0.21066-4.5391-7.4492-4.5391-7.4492l-0.11524-0.19141-13.826-0.05664zm-69.576 37.268h16.508v3.8496c-7.7752 0.28726-14.44 8.2539-15.264 18.48l-0.19141 5.9746c-0.51707-0.40216-1.0528-0.74789-1.6465-1.0352-2.7386-1.2831-5.5929-0.97692-7.9102-0.30664v-6.8555l4.3867 0.01953s3.9831-19.495 4.1172-20.127zm48.338 0h16.508c0.0383 0.24896 0.66913 3.3508 1.416 7.0469-0.70859 1.7427-2.9687 7.3914-3.8496 9.5938-2.3747-7.3348-7.8502-12.561-14.074-12.791v-3.8496zm23.574 35.275c1.2256 0.91924 2.3554 1.8005 3.1406 2.375-0.90009 2.0108-1.6482 4.4043-2.127 7.2578v-5.7461c-0.13406-1.5512-0.49661-2.8334-1.0137-3.8867zm7.4883 27.156c3.2365 1.6661 6.3566 2.7193 9.3633 3.1406h-17.771c2.5279-0.11491 4.9212-0.86115 6.8555-1.9336 0.68943-0.38302 1.0357-0.80487 1.5527-1.207z" fill="#fff" transform="translate(-.00093079)"/>
  <path d="m74.82 74.033c-7.547 0.13634-15.152 2.7073-19.832 7.2676-4.7686 4.6728-7.1243 10.245-6.3008 14.898 0.45962 2.5471 1.8575 4.4812 3.9258 5.4004 2.4513 1.1108 4.6143 1.1701 6.4336 0.19336 3.6961-1.9917 4.6355-7.5089 4.6738-7.7578l0.03711-0.30664h-0.30469c-0.93839 0.01915-2.0882-0.17093-2.2988-1.2051-0.0383-0.11491-0.03906-0.24876-0.03906-0.38281 0-1.8193 2.2804-4.7496 5.3828-6.2051v39.834c-3.2556 3.3514-5.0566 6.9129-5.0566 9.8047 0 0.67027 0.07607 1.2829 0.26758 1.8574 0.57453 1.7427 2.0313 2.892 4.0996 3.2559 2.7577 0.47877 5.9355-0.4591 8.291-2.4316 2.279-1.9151 3.543-4.5005 3.543-7.2773v-20.166c7.5646-2.6237 14.632-5.7652 17.85-12.334 0.95754-1.9917 1.6089-4.231 1.7812-6.9121 0.1149-1.8193-0.0771-3.5238-0.51758-5.1133-0.843-3.1-2.719-5.725-5.496-7.793-1.054-0.804-2.241-1.532-3.563-2.144-3.842-1.767-8.348-2.563-12.877-2.481zm5.2852 9.7793c4.8023-0.01613 7.5125 2.4024 8.0332 7.1602 0.53622 5.0367-2.7965 8.8658-8.6758 9.9766l-1.5898 0.30664v-17.332l1.2441-0.07617c0.33873-0.02274 0.66813-0.03408 0.98828-0.03516zm23.015 1.858c-0.95515 0.02633-1.923 0.30752-2.7656 0.84375-1.647 1.0533-2.4521 2.8356-2.2031 4.8848v44.295c-0.22981 1.6853 0.34618 3.123 1.6484 4.0039 1.5895 1.0724 4.0018 1.1482 5.7637 0.15234 1.5129-0.84265 2.2989-2.2791 2.2031-4.041v-15.818c-0.1915-0.91924 0.9567-2.0311 2.3164-2.3184 0.59368-0.13406 2.6235-0.32528 3.2363 2.375l-0.0195 14.729c0.0575 2.8726 1.6851 4.8824 4.6152 5.6484 3.8685 1.015 9.0218-0.4022 10.707-2.8535 2.3173 2.2981 4.8259 3.4856 7.4688 3.4473 4.2515-0.0383 7.2759-2.9868 7.793-3.5039 2.03 2.1066 4.3666 3.2929 6.9902 3.3887 5.3048 0.22981 9.7876-3.6376 10.4-4.1738 8.5796 8.7136 18.882 1.1487 19.629 0.57421 4.692 4.9409 10.649 4.3477 14.689 2.0879 1.1108-0.61282 2.0479-1.4172 2.2969-2.0684 6.8752 4.0217 13.119 5.0164 18.539 2.7949 10.188-4.2132 14.19-18.174 14.631-19.764 4.1174 1.1299 5.9748 4.768 6.2812 7.6406 0.0383 0.30641 0.0391 0.61313 0.0391 0.90039 0 1.8768-0.65097 3.3329-1.7617 3.8691-1.3597 0.65113-3.3145-0.20975-5.4785-2.4121-2.0683 0.57453-4.8441 5.3808-4.959 5.5723 5.9942 5.6112 10.474 5.4955 13.193 4.4805 4.3472-1.6087 6.8572-6.4723 7.2402-9.4024 0.11491-0.86178 0.17188-1.6859 0.17188-2.4902 0-8.1008-6.1481-12.582-12.621-17.293l-1.7031-1.2441c0-0.0383-0.84375-1.4551-0.84375-1.4551l-0.15235-0.25-5.9941 4.2715c0.57453 11.395-5.3051 16.144-8.8672 17.982-3.428 1.781-6.7218 1.914-7.5645 1.2246-0.19151-0.1532-0.17344-0.28744-0.1543-0.40235 8.2732-5.2282 12.047-11.72 9.998-17.197-1.5895-4.2515-6.2813-6.7984-11.203-6.0898-2.662 0.38302-11.472 2.8921-12.621 19.094 0.26812 2.9492-0.90021 4.2905-1.9726 4.5586-1.0916 0.26812-2.2396-0.45946-2.7949-1.7617l0.0176-12.717c-0.3447-3.9642-2.5271-5.1708-4.4805-5.0176-2.2215 0.21067-4.4423 2.2798-4.1934 5.0566v10.148c-0.28725 2.1832-1.6669 3.9461-3.6777 4.6738-1.8385 0.65114-3.8297 0.30693-5.1894-0.95703-1.1491-1.0533-2.8536-3.7152-1.2832-9.5371 4.1558-8.0625 5.6883-14.804 5.7266-20.07 0.0191-2.2981-0.24974-4.2913-0.72852-5.9766-0.32557-1.1299-0.70911-2.1632-1.207-3.0059-1.2831-2.1832-3.0825-3.4097-5.0742-3.4863-2.164-0.01915-4.5968 0.15337-6.2246 1.877-1.398 1.4938-1.9908 3.965-1.7226 7.3164v27.691c-0.70859 3.7344-2.2599 5.0377-3.4473 5.459-1.3789 0.47876-3.0273 0.0198-4.502-1.2441 0-0.0383-0.20899-0.42188-0.20899-0.42188-0.45961-0.91924-0.91992-1.8197-0.91992-3.7539 0-1.0342 0.1338-2.3936 0.47852-4.2129 3.8493-8.637 5.8418-16.316 5.8418-22.1 0-3.179-0.59504-5.7849-1.8398-7.6426-1.3406-2.0108-3.4088-3.0262-5.9941-2.9688-2.2598 0.05745-3.9256 0.67083-5.0938 1.8965-1.5129 1.6087-2.1825 4.1945-2.0293 7.8906v29.377c0 1.5129-0.55646 2.6622-1.6289 3.2559-0.99585 0.55538-2.2792 0.49722-3.2559-0.13477-0.95755-0.61282-1.4356-1.6466-1.3398-2.9297v-10.936c0.0766-2.2981-0.76518-4.1351-2.3164-5.0352-1.2831-0.74688-2.8923-0.70858-4.1562 0.0957-1.5129 0.93839-2.2977 2.7769-2.1445 5.0176v11.758c-0.0574 1.781-1.5707 2.6238-3.0644 2.6621-1.6278 0.0383-3.3702-0.86232-3.5234-2.6816v-12.678c-0.55537-4.6537-2.183-7.6415-4.8066-8.8672-3.7536-1.781-8.2173 0.53751-9.4238 1.2461v-17.582c0.0383-0.26811 0.0586-0.55377 0.0586-0.80274 0-1.9151-0.74808-3.4093-2.127-4.252-0.79476-0.48835-1.7363-0.71774-2.6914-0.69141zm47.299 9.8223c0.17714 0.0096 0.35089 0.0605 0.51367 0.15625 1.3023 0.80434 1.7988 4.4064 1.8945 6.3789-0.45963 7.3156-1.3394 10.838-2.7949 11.049l-0.30664 0.0586v-17.467l0.15234-0.07617c0.18194-0.0766 0.36387-0.10918 0.54102-0.09961zm17.717 0c0.17476 0.0096 0.34894 0.0605 0.51172 0.15625 1.3023 0.80434 1.8179 4.406 1.8945 6.3594-0.44047 7.239-1.3602 10.858-2.7774 11.068l-0.30469 0.0586v-17.467l0.15235-0.07617c0.17236-0.0766 0.34868-0.10918 0.52343-0.09961zm41.762 19.203c0.4309 0.0287 0.80454 0.13252 1.0918 0.31446 0 0.0191 0.32617 0.88281 0.32617 0.88281 0.0191 0.1532 0.0176 0.34365 0.0176 0.53515 0 1.5512-0.64967 3.7738-1.9902 5.3633-1.6853 1.9342-4.4428 3.5238-6.1856 3.543l-1.0918-0.36523c-0.24896-0.15321-0.36442-0.3635-0.42187-0.66992-0.24897-1.3022 0.63183-4.041 2.4512-6.2051l0.0391-0.0566c0.82349-1.4746 2.528-2.7396 4.3281-3.1992 0.51707-0.12448 1.0046-0.1713 1.4355-0.14258zm-140.97 31.85c-4.7877 0.61282-4.0416 6.9886 0.05664 7.1035h152.25c4.3664 7.0475 11.357 5.4009 13.387 0.80469 1.7044-7.0667-4.2322-7.9848-6.875-7.9082h-158.82z" fill="#e81828" transform="translate(-.00093079)"/>
  <path d="m185.79 90.783c-0.0958 0-0.19217 0.05659-0.23047 0.15234l-2.6055 7.4492-5.6875-0.15234c-0.0958 0-0.19179 0.05659-0.21094 0.15234-0.0191 0.01915-0.0176 0.05898-0.0176 0.07813 0 0.0766 0.0187 0.13357 0.0762 0.17188 0 0 5.0941 4.5004 5.1133 4.5195-0.15321 0-2.2793 6.9316-2.2793 6.9316-0.0191 0.0192-0.0195 0.059-0.0195 0.0781 0 0.0766 0.0383 0.13396 0.0957 0.19141 0.0958 0.0575 0.2105 0.0575 0.28711 0 0 0 5.5922-4.3285 5.6113-4.3477 0 0.21066 5.3438 4.3477 5.3438 4.3477 0.0958 0.0575 0.2105 0.0575 0.28711 0 0.0575-0.0575 0.0957-0.1148 0.0957-0.19141 0-0.0191-0.00043-0.0589-0.0195-0.0781 0 0-2.2012-7.1625-2.2012-7.1816 0.0957 0.0958 5.0352-4.2695 5.0352-4.2695 0.0766-0.05745 0.097-0.15425 0.0586-0.25-0.0191-0.09575-0.11519-0.15234-0.21094-0.15234h-5.8984v-0.01953c0-0.42132-2.3945-7.2773-2.3945-7.2773-0.0383-0.09575-0.13276-0.15234-0.22851-0.15234zm-52.553 0.01758c-0.0958 0-0.19178 0.05854-0.21093 0.1543l-2.623 7.4492-5.6875-0.1543c-0.0957 0-0.17264 0.05816-0.21094 0.13477-0.0191 0.0383-0.0195 0.0574-0.0195 0.0957 0 0.05745 0.0379 0.13357 0.0762 0.17188 0 0 5.0941 4.502 5.1133 4.502-0.13405 0.0191-2.2793 6.9512-2.2793 6.9512 0 0.0192-0.0176 0.0374-0.0176 0.0566 0 0.0766 0.0382 0.15349 0.0957 0.21094 0.0957 0.0575 0.21051 0.0379 0.28711-0.0195 0 0 5.5922-4.3266 5.6113-4.3457 0 0.21067 5.3613 4.3457 5.3613 4.3457 0.0766 0.0575 0.17182 0.077 0.26758 0.0195 0.0575-0.0575 0.0977-0.13433 0.0977-0.21094v-0.0566s-2.2226-7.1625-2.2226-7.1816c0.0766 0.0575 2.548-2.0685 3.9844-3.3516 0.61283-0.51707 1.0527-0.91992 1.0527-0.91992 0.0766-0.05745 0.11448-0.17182 0.0762-0.26758-0.0383-0.0766-0.13471-0.13477-0.23047-0.13477h-0.88086-1.0723c-1.7044 0-3.9262 0.0016-3.9453-0.01758 0-0.44047-2.3926-7.2773-2.3926-7.2773-0.0383-0.09575-0.13472-0.1543-0.23047-0.1543z" fill="#284898" transform="translate(-.00093079)"/>
 </g>
</svg>
