<?xml version="1.0" encoding="UTF-8" standalone="no"?>
<svg xmlns:rdf="http://www.w3.org/1999/02/22-rdf-syntax-ns#" xmlns="http://www.w3.org/2000/svg" height="200" width="200" version="1.1" xmlns:cc="http://creativecommons.org/ns#" xmlns:dc="http://purl.org/dc/elements/1.1/" viewBox="0 0 200 200.00192">
 <g transform="translate(138.29 -431.36)">
  <g>
   <path d="m60.805 531.27-11.988-11.99-0.52372-13.252-0.01151-0.002-0.01151-0.32421-3.1692-1.1261v0.002l-0.35682-0.11894c-5.1681-1.8167-9.3099-2.6244-13.394-2.6416l-69.545-69.545-53.27 53.266c-0.51604-0.01-1.0455-0.0153-1.5884-0.0153h-33.819v6.0448s0.41053 0.0748 1.0647 0.20143v3.1404s5.6496 1.0724 8.3143 1.5788v15.084l-19.702 19.698 15.362 15.362c-2.4805 0.45274-5.0396 0.91507-5.0396 0.91507v6.1427h1.0647v2.8047h13.835l73.777 73.779 72.874-72.879c10.67-1.1261 16.922-7.1613 16.922-16.617 0-0.0959-0.01151-0.19184-0.01151-0.28967l9.2159-9.2178z" fill="#fff"/>
   <path d="m100.09 4.7656l-49.574 49.574c4.456 0.322 8.153 1.071 11.14 2.289l38.434-38.426 53.44 53.432h7.48c1.53-0.474 3.18-0.805 4.95-1.002l-65.87-65.867zm-87.471 50.597v3.844l9.375 1.781v54.502l-9.375 1.7v3.93h34.373v-3.93l-9.568-1.7v-56.006c1.082-0.096 2.146-0.183 3.125-0.183 9.667 0 14.545 5.341 14.545 15.566 0 0.668-0.032 1.298-0.074 1.912 0.007-0.008 0.017-0.019 0.029-0.023l-0.063 0.455 6.057-6.369-3.016 8.506 10.116 1.607c1.377-2.682 2.086-5.72 2.086-8.902 0-11.911-8.005-16.69-24.995-16.69h-0.004-7.798-24.813zm29.863 6.67c-0.723 0-1.514 0.052-2.324 0.125v15.977l4.03-4.028-2.491-2.566 3.092 1.961 7.307-7.305c-0.474-0.88-1.051-1.66-1.711-2.328-2.086-1.214-4.712-1.836-7.903-1.836zm127.05 9.621c-3.15 0-5.94 0.42-8.36 1.184h-5.11-20.21v2.717l6.37 1.248-10.57 18.441-9.63-18.441 5.86-1.248v-2.717h-26.59v2.717l6.38 1.248 14.35 24.137v16.15l-6.28 1.22-4.11-1.22-17.384-44.252h-8.475l-14.91 36.282c-1.579-2-3.082-3.99-4.515-5.89-2.627-3.786-5.507-8.169-8.891-13.097l0.334-0.184c0.654-0.257 1.351-0.555 2.094-0.912 0.075-0.042 0.15-0.083 0.224-0.129l-4.207-3.342-2.525 16.444-1.85-16.637-0.007-0.008c-2.182 2.049-5.373 3.049-9.639 3.049-0.355 0-1.6 0-2.256-0.021v1.998l-0.002 0.548 4.686 1.579c0.13 0.224 0.268 0.471 0.42 0.744 0.376 0.633 0.513 0.974 0.513 0.974 2.87 5.057 5.611 11.004 9.153 16.334 31.367 52.96 83.197 18.96 87.397 14.76l-1.56-1.85c-34 17.23-51.268 6.05-64.039-7.99-0.109-0.13-0.217-0.26-0.334-0.39l2.672-7.2h15.717l3.19 9.19-6.668 1.32v2.71h24.482 0.83 27.73v-2.71l-8.54-1.32v-16.15l14.41-24.137 5.61-0.785c-3.03 2.61-4.67 6.296-4.67 10.804 0 6.887 3.99 11.063 12.17 15.098 3.62 1.8 7.24 2.92 10 5.15 1.52 1.18 2.39 2.92 2.39 4.87 0 3.76-3.05 6.47-8.19 6.47-7.25 0-11.66-4.25-12.96-12.6h-2.61l0.36 12.94c4.78 2.37 9.99 3.48 15.78 3.48 12.11 0 18.67-5.84 18.67-14.75 0-4.45-1.31-7.857-4.12-10.431-3.7-3.415-8.28-5.015-11.9-6.68-5.58-2.57-9.13-4.105-9.13-8.701 0-3.685 3.73-6.113 8.23-6.113 6.16 0 10.21 3.891 11.73 11.677h2.1l-0.51-13c-4.56-1.598-8.76-2.578-13.1-2.578zm1.45 6.457c-4.23 0-7.42 2.288-7.42 5.319 0 0.765 0.11 1.442 0.35 2.05 1.3 1.215 3.41 2.237 6.45 3.629l0.36 0.162 2.04 0.917c3.28 1.429 6.99 3.05 10.15 5.974 1.34 1.224 2.36 2.629 3.1 4.228 1.29 1.78 2.08 3.88 2.41 6.33l6.81-6.812-9.93-9.939h-4.53l-0.12-0.643c-0.07-0.311-0.13-0.591-0.19-0.883h-0.41l-0.19-0.974c-0.53-2.717-1.38-4.931-2.54-6.619-1.57-1.888-3.63-2.739-6.34-2.739zm-103.93 4.686l-9.193 0.869 3.328 4.652c2.442-1.461 4.403-3.344 5.865-5.521zm-46.256 1.267l-15.846 15.844 14.774 14.782c0.462-0.09 0.836-0.15 1.072-0.19v-30.436zm66.066 1.225l6.145 18.751-13.141 0.04 1.055-2.84 5.941-15.951zm86.023 23.541l-8.21 8.2c0.73 0.12 1.51 0.17 2.32 0.17 4.25 0 6.98-2.06 6.98-5.26 0-1.17-0.38-2.23-1.09-3.11zm-14.56 14.56l-58.23 58.23-57.758-57.76h-13.439l71.197 71.19 70.11-70.1c-0.35 0.01-0.69 0.01-1.05 0.01-3.91 0-7.45-0.5-10.83-1.57z" transform="translate(-138.29 431.36)" fill="#092c5c"/>
   <path d="m61.043 70.842l-6.057 6.369-0.207 1.611 2.494-1.67-1.158 2.971 7.871 1.74-7.873 0.813 1.965 3.15-3.027-2.201-1.528 9.268-1.06-8.539-0.94 1.019 1.85 16.647 2.527-16.454 4.209 3.342 1.02 0.817 0.523 0.418 1.36 1.086 0.566 0.441-0.389-0.541-0.941-1.317-0.367-0.507-0.699-0.987-3.328-4.65 9.193-0.871 1.551-0.145 0.748-0.07 1.861-0.174 3.82-0.361-3.445-0.539-1.623-0.27-0.557-0.084-1.259-0.199-10.116-1.605 3.016-8.508zm-19.346 0.699l2.491 2.566 0.763 0.791 1.955 2.034 4.49 4.642-7.048 3.028 7.048-0.614c0-1.59 0.408-4.275 2.827-6.539l0.011-0.099-2.472-4.567 1.246 5.963-4.834-3.086-2.436-1.543-0.949-0.615-3.092-1.961z" transform="translate(-138.29 431.36)" fill="#f5d130"/>
   <path d="m100.09 19.762c-0.363 0.372-18.452 18.453-37.35 37.347 0.917 0.442 1.76 0.916 2.526 1.461l28.088-28.088 6.736 6.733 6.74-6.74 41.15 41.162h3.98c-22.89-22.892-51.41-51.413-51.87-51.875zm-59.543 40.742c-0.601 0-1.256 0.044-1.922 0.088v0.084 26.504c0.127 0 0.816 0.008 1.533 0.019v-3.523l6.748-6.746-1.953-2.03c-1.644 1.644-3.245 3.247-4.795 4.791v-1.556-15.977c0.81-0.073 1.601-0.125 2.324-0.125 3.191 0 5.817 0.622 7.903 1.836-2.193-2.223-5.422-3.342-9.711-3.365h-0.127zm-26.801 0.142v1.846s4.231 0.805 7.045 1.344v-1.635-0.215c-0.806-0.157-3.252-0.618-5.436-1.029-0.567-0.117-1.114-0.217-1.609-0.311zm55.537 2.245c1.441 2.49 2.149 5.523 2.149 9.16 0 0.606-0.032 1.196-0.077 1.787-0.211 2.64-0.871 5.101-1.953 7.316l0.559 0.084 1.621 0.27c0.902-2.31 1.377-4.836 1.377-7.531 0-4.666-1.193-8.337-3.676-11.086zm-16.681 4.359c-2.333 2.333-4.631 4.632-6.862 6.867l2.434 1.545 5.318-5.324c-0.211-1.12-0.497-2.163-0.89-3.088zm43.377 6.717c3.545 9.024 16.191 41.213 16.551 42.133 0.29 0.08 0.92 0.27 1.63 0.48-3.27-8.32-16.744-42.613-16.744-42.613h-1.437zm33.101 0v2.564s-3.58 0.765-5.26 1.121c1.11 2.126 6.38 12.237 7.88 15.08 0.19-0.335 0.45-0.784 0.75-1.31-2.42-4.769-6.05-11.903-6.61-12.988 1.29-0.321 4.77-1.159 4.77-1.159v-3.308h-1.53zm54.79 1.113l0.53 13.363h-3.94c0.06 0.292 0.12 0.572 0.19 0.883l0.12 0.643h4.53 0.61l-0.57-14.389-0.51-0.178c-0.33-0.117-0.64-0.214-0.96-0.322zm-14.56 1.678c-4 0-7.02 2.115-7.02 4.91 0 1.642 0.52 2.794 1.62 3.812-0.24-0.61-0.35-1.287-0.35-2.052 0-3.031 3.19-5.317 7.42-5.317 2.71 0 4.77 0.851 6.34 2.741-1.87-2.717-4.54-4.094-8.01-4.094zm-66.88 0.246v1.144s3.27 0.642 5.25 1.03c-0.42-0.72-0.7-1.184-0.77-1.293-0.51-0.106-2.72-0.534-4.48-0.881zm34.55 0.002v1.142s1.32 0.256 2.77 0.543c0.25-0.427 0.45-0.778 0.59-1.027-0.86-0.165-2.2-0.434-3.36-0.658zm15.19 0.664c-0.83 0.119-1.49 0.208-1.75 0.25-0.56 0.934-13.62 22.81-13.95 23.35v14.78c0.32 0.05 0.87 0.13 1.53 0.24v-14.06c0.17-0.29 8.23-13.784 12.08-20.228 0.46-1.59 1.17-3.039 2.09-4.332zm-80.965 4.738l-1.857 0.174-0.75 0.072c-1.612 2.676-3.878 4.932-6.717 6.651l0.365 0.507 0.945 1.317c3.663-2.101 6.391-5.101 8.014-8.721zm15.576 6.533c-1.73 4.66-4.734 12.729-4.734 12.729s-0.229 0.61-0.453 1.2c0.577-0.01 1.354-0.01 2.23-0.01 0.11-0.29 0.186-0.48 0.186-0.48h-0.268c0.491-1.32 2.599-6.985 3.961-10.636-0.341-1.04-0.653-1.999-0.922-2.803zm-25.652 0.784c-0.238 0.13-0.473 0.269-0.721 0.396-0.385 0.186-0.772 0.364-1.148 0.527 0.084 0.131 0.183 0.279 0.291 0.44 1.212 1.776 3.439 5.062 3.439 5.062s4.317 6.34 4.336 6.38c0.033 0.03 0.336 0.44 0.336 0.44 0.332 0.44 0.674 0.89 1.008 1.33-0.915-1.34-4.104-6.025-4.104-6.025s-3.161-4.66-3.996-5.879c0.516-0.211 1.043-0.446 1.59-0.708 0.29-0.15 0.57-0.308 0.854-0.459l-1.362-1.086-0.523-0.418zm-22.504 2.15v22.615c0.309 0.05 0.856 0.15 1.533 0.27v-22.364c-0.794-0.274-1.439-0.49-1.533-0.521zm2.127 0.717l-0.01 0.857s1.87 0.626 3.326 1.119c-0.063-0.128-0.181-0.364-0.392-0.72 0 0-0.098-0.167-0.196-0.33-0.366-0.131-1.6-0.548-2.728-0.926zm116.55 7.588c1.85 1.52 4.17 2.96 7.06 4.39 1.17 0.58 2.33 1.09 3.45 1.58 0.4 0.17 0.79 0.35 1.17 0.52l0.26 0.25-8.64 8.65c0.83 0.53 1.76 0.92 2.78 1.19 3.23-3.23 6.15-6.14 8.62-8.61 0.19 0.11 0.37 0.22 0.56 0.33-0.16-0.17-0.34-0.33-0.53-0.48-1.75-1.41-3.96-2.39-6.3-3.41-1.13-0.5-2.3-1.01-3.47-1.59-1.88-0.93-3.52-1.87-4.96-2.82zm28.71 0.21c0.94 2.04 1.43 4.37 1.43 7.09 0 4.83-1.82 8.85-5.25 11.65-3.44 2.82-8.5 4.3-14.63 4.3-5.39 0-10.21-0.93-14.66-2.83l0.02 0.59 0.43 0.21c0.32 0.16 0.65 0.3 0.97 0.44l-46.24 46.24v-5.44h-15.875v5.55l-44.332-44.33h1.859v-5.42s-0.624-0.11-1.537-0.27v4.16h-34.449v1.53h15.147 13.439 1.564c23.439 23.43 55.703 55.7 56.194 56.19 0.49-0.5 33.55-33.54 57.04-57.05 0.4 0.15 0.8 0.26 1.19 0.39 3.38 1.07 6.92 1.57 10.83 1.57 0.36 0 0.7 0 1.05-0.01 11.55-0.33 18.42-6.08 18.42-15.54 0-0.94-0.08-1.83-0.2-2.69-0.33-2.45-1.12-4.55-2.41-6.33zm-30.55 6.55c0.66 3.19 1.81 5.61 3.5 7.31-1.05-1.77-1.8-3.98-2.21-6.63l-0.11-0.68h-1.18zm-76.093 2.16c-0.47 1.26-1.406 3.8-2.135 5.75 0.453 0.49 0.923 1 1.409 1.51 0.846-2.29 1.912-5.17 2.117-5.72h13.166c-0.236-0.67-0.428-1.23-0.537-1.54h-14.02zm65.653 10.32v2.9h-4.19l1.29 1.53h4.43v-4.2s-0.62-0.09-1.53-0.23zm-53.125 2.9v1.53h24.485 2.43 17.92c0.97-0.46 1.96-0.93 2.96-1.44l0.16-0.09h-22.57-3.24-22.145zm51.415 3.19l-0.67 0.67c-0.13 0.12-0.3 0.27-0.49 0.44-2.02 1.73-7.81 5.65-15.95 9.03-4.44 1.84-10.26 3.77-16.81 4.78-4.84 0.74-10.072 0.99-15.464 0.31-7.938-1-15.211-3.81-21.785-8.41 7.004 5.44 14.857 8.73 23.504 9.82 12.585 1.57 24.385-1.95 32.065-5.18 8.83-3.71 14.9-8.07 16.32-9.49l0.52-0.52-1.24-1.45z" transform="translate(-138.29 431.36)" fill="#8fbce6"/>
   <path d="m100.09 23.746l-5.113 5.111 5.113 5.106 5.11-5.106-5.11-5.111zm-55.902 50.361l-4.03 4.028v1.556c1.55-1.544 3.151-3.149 4.793-4.793l-0.763-0.791zm24.41 8.547l-1.551 0.143c-1.46 2.177-3.425 4.06-5.865 5.521l0.699 0.987c2.839-1.719 5.105-3.975 6.717-6.651zm18.259 2.635l-5.941 15.951-1.053 2.84 13.139-0.04-6.145-18.751zm-0.076 3.652c0.269 0.804 0.583 1.763 0.924 2.803-1.362 3.651-3.47 9.316-3.961 10.636h0.266s-0.075 0.19-0.184 0.48c-0.878 0-1.653 0-2.23 0.01 0.222-0.59 0.449-1.2 0.449-1.2s3.006-8.069 4.736-12.729zm70.349 34.059c-23.49 23.51-56.55 56.55-57.04 57.05-0.491-0.49-32.755-32.76-56.194-56.19h-1.564l57.758 57.76 58.23-58.23c-0.39-0.13-0.79-0.24-1.19-0.39zm-62.581 41.97v5.57l5.541 5.54 5.64-5.66v-5.45h-11.181z" transform="translate(-138.29 431.36)" fill="#fff"/>
  </g>
 </g>
</svg>
