<?xml version="1.0" encoding="iso-8859-1"?>
<!-- Generator: Adobe Illustrator 14.0.0, SVG Export Plug-In . SVG Version: 6.00 Build 43363)  -->
<!DOCTYPE svg PUBLIC "-//W3C//DTD SVG 1.1//EN" "http://www.w3.org/Graphics/SVG/1.1/DTD/svg11.dtd">
<svg version="1.1" id="Layer_1" xmlns="http://www.w3.org/2000/svg" xmlns:xlink="http://www.w3.org/1999/xlink" x="0px" y="0px"
	 width="250px" height="93px" viewBox="0 0 250 93" style="enable-background:new 0 0 250 93;" xml:space="preserve">
<g>
	<path style="fill:#FFFFFF;" d="M220.111,14.639c-0.346,0-88.755,0-88.755,0s-0.63,1.118-0.691,1.233
		c-3.391-1.372-7.042-1.491-8.249-1.483c-1.138,0.004-2.298,0.084-3.467,0.223l5.204-9.117c0,0-68.273,0.031-73.139,0.892
		c-22.169,3.928-28.996,13.395-29.28,13.798l-1.391,1.995c0,0,0.208,0.265,0.315,0.396C10.635,28.453,7.237,34.848,7.091,35.144
		l-2.183,4.263l4.189,0.192c0.153,0.007,12.999,0.68,22.123,5.562c-4.013,2.16-6.911,6.015-7.502,10.635
		c0,0.004-0.123,2.01-0.123,2.01c0,3.141,1.015,6.269,2.875,8.821c3.513,4.789,9.947,7.337,18.126,7.168
		c4.705-0.093,9.232-0.854,13.537-2.26l-7.664,5.234c0,0,78.066-2.521,82.217-2.671c0.123,0.642,0.246,1.279,0.431,1.868
		c0.699,2.175,1.929,4.389,3.213,5.796c6.896,7.537,17.987,6.845,19.226,6.741c6.118-0.499,18.664-4.75,27.727-16.823l55.294-2.01
		l0.022-14.802l-7.687-0.012c0.415-0.261,0.814-0.522,1.199-0.803c5.727-4.167,9.278-10.27,10.277-17.654
		c0.445-3.267,0.561-6.299,0.691-9.509c0.123-3.175,0.254-6.461,0.715-9.858l1.115-8.218
		C244.91,8.816,223.686,13.797,220.111,14.639"/>
	<path style="fill:#0065A3;" d="M24.802,23.325c-0.139-0.153-1.168-1.479-1.168-1.479s6.257-8.959,27.75-12.776
		c7.48-1.322,22.662-0.919,25.598-0.857h42.529l-5.496,9.628h-1.953c-3.475,0-4.305,0-6.526,0.723
		c-3.013,1.011-7.58,3.348-12.415,11.892l-2.983,5.254l-2.952,5.208c-4.578,9.017-10.335,16.108-17.115,21.089
		c-7.58,5.55-16.166,8.463-25.513,8.647c-7.226,0.146-13.191-2.021-16.22-6.157c-1.453-2.002-2.275-4.439-2.275-6.898
		c0-0.52,0.031-1.046,0.1-1.572c0.692-5.42,5.673-9.628,11.454-9.978c-9.156-8.717-28.419-9.589-28.419-9.589
		S12.864,29.306,24.802,23.325"/>
	<path style="fill:#0065A3;" d="M240.559,12.613l-22.177,5.204c0,0-10.793,12.223-12.03,13.629
		c-1.237,0.162-2.444,0.477-3.582,0.961c1.276-2.283,2.598-4.635,2.598-4.635c2.091-3.698,5.082-3.793,5.204-3.797
		c0.008,0,1.254-0.023,1.254-0.023l3.797-6.595h-82.943c0,0-0.707,1.257-1.084,1.926c-2.599-1.611-6.334-2.195-9.155-2.172
		c-12.507,0.065-27.166,8.629-29.057,22.346c-0.553,4.066,0.254,7.783,2.345,10.739c2.759,3.921,7.587,6.165,13.252,6.139
		c5.565-0.027,10.324-2.479,13.053-4.243c1.076,1.502,3.797,4.277,9.239,4.273c5.313-0.004,10.932-1.71,15.028-4.559
		c0.516-0.354,1.691-1.229,2.506-1.837c1.976,3.932,6.327,6.427,11.516,6.435c2.736,0.003,4.989-0.535,6.626-1.119
		c-2.359,4.225-6.411,11.47-7.057,12.488c-0.646,1.068-1.43,2.056-2.099,2.651c-2.19,1.93-4.773,2.964-6.58,2.629
		c-0.653-0.13-1.13-0.423-1.406-0.88c-0.192-0.312-0.284-0.711-0.284-1.226c0.007-0.119,0.046-0.585,0.054-0.681
		c0.3-2.268,1.891-4.882,4.143-6.83c2.045-1.771,6.688-4.47,6.727-4.497l3.759-2.179l-57.799,0.038
		C95.027,56.507,92.237,50.807,90.2,46.648l-1.161-2.372l-0.846,1.599l-1.222,2.314c-4.462,7.94-10.935,14.705-18.707,19.54
		c-0.023,0.02-9.017,5.851-9.017,5.851s73.546-2.626,75.567-2.702c0.023,1.122,0.192,2.518,0.615,3.851
		c0.554,1.737,1.561,3.563,2.567,4.662c6.25,6.834,16.935,6.02,17.389,5.981c6.688-0.55,21.554-5.858,29.933-22.009
		c-0.007,0.027,6.512-11.542,9.625-17.061c0.33,1.53,1.168,3.621,2.729,5.346c3.19,3.498,8.049,4.805,15.052,4.813
		c6.972,0.011,13.283-1.646,18.118-5.124c5.135-3.739,8.248-9.186,9.124-15.616c0.415-3.094,0.53-6.05,0.653-9.174
		c0.131-3.275,0.27-6.626,0.754-10.189l0.546-4.059 M121.548,37.973c-3.098,4.27-5.996,5.888-7.372,6.196
		c-0.2,0.046-0.415,0-0.584-0.166c-0.177-0.169-0.269-0.415-0.262-0.661l0,0c0.039-1.891,1.215-5.354,3.882-9.037
		c3.105-4.281,6.019-5.896,7.387-6.192c0.2-0.05,0.407,0.008,0.569,0.162c0.177,0.169,0.261,0.415,0.261,0.657
		C125.391,30.832,124.215,34.291,121.548,37.973z M150.644,35.706c-2.321,3.805-5.073,5.442-6.857,5.934l-0.084,0.027
		c-0.077,0.027-0.169,0.011-0.23-0.05c-0.101-0.1-0.123-0.261-0.062-0.392c0.092-0.169,0.185-0.357,0.307-0.576
		c-0.007,0.007,7.265-12.953,7.265-12.953c2.091-3.697,5.073-3.79,5.204-3.79c0,0,0.984-0.019,1.13-0.019
		C154.333,29.164,150.644,35.706,150.644,35.706z M180.892,30.39c-2.298,4.082-6.511,8.31-9.217,9.697l-0.084,0.027
		c-0.085,0.031-0.169,0.012-0.238-0.05c-0.093-0.096-0.115-0.246-0.062-0.369c1.414-2.521,5.035-8.682,6.88-11.961
		c2.091-3.701,5.166-3.793,5.196-3.793c0.016,0,1.038-0.02,1.161-0.02C182.714,27.15,180.892,30.39,180.892,30.39z M210.871,45.898
		v-0.004c-0.184,0.012-0.368-0.081-0.483-0.269c-0.154-0.238-0.146-0.549-0.008-0.784c0.707-1.153,2.705-3.109,4.804-3.54
		c0.139-0.02,0.285,0.042,0.377,0.188c0.1,0.15,0.107,0.342,0.046,0.504l0,0C214.361,44.653,212.386,45.795,210.871,45.898z"/>
	<path style="fill:#231F20;" d="M77.489,10.45c0,0-17.696-0.438-25.867,0.861c-8.855,1.38-20.816,6.096-24.998,10.931l1.622,1.814
		c0,0-1.53,0.75-4.382,2.444c-8.763,5.228-10.531,8.114-10.531,8.114c7.518,0.973,21.001,2.06,30.21,14.878
		c-1.522-0.861-3.259-1.261-5.289-1.227c-5.158,0.101-9.478,3.567-10.063,8.099c-0.3,2.379,0.269,4.64,1.661,6.546
		c2.621,3.566,8.118,5.607,14.675,5.473c9.017-0.173,17.28-2.963,24.544-8.282c6.526-4.781,12.054-11.611,16.458-20.306l0.934-1.622
		l5.089-8.971c5.204-9.213,10.186-11.723,13.476-12.792c2.475-0.838,3.536-0.838,7.034-0.838h0.953l2.921-5.123 M60.532,40.341
		c-2.506,4.535-6.457,11.869-10.739,16.331c-1.822-3.759-6.127-11.977-10.516-15.244c2.014,0.677,4.612,1.449,7.879,2.153
		c0,0-2.014-1.622-3.421-2.86c7.18-0.519,13.568-3.305,19.079-11.527c0,0,0.7-0.419,3.751,0.507L60.532,40.341z M70.363,23.006
		l-2.967,5.247c-1.038-0.93-2.368-1.979-4.043-3.129c0,0-0.43-0.261-0.653-0.419c-1.376-0.88-2.975-1.81-4.789-2.687
		c-1.545-0.68-3.274-1.307-5.104-1.81l3.397-1.887c-6.38-0.219-11.354,0.542-14.259,1.145c-0.638,0.092-1.269,0.204-1.891,0.357
		c-5.442,1.314-9.155,3.271-9.155,3.271l-0.953-0.838C42.92,10.573,76.19,12.541,76.19,12.541s-4.751,3.39-8.256,6.257
		c-1.038,0.849-3.151,2.683-3.151,2.683C66.635,21.918,68.511,22.434,70.363,23.006z"/>
	<path style="fill:#FFFFFF;" d="M42.59,38.623c-9.209,0.115-9.447-5.746-9.647-6.472c0,0,2.552,1.676,6.426-0.227
		c1.453-0.784,3.421-2.167,5.773-4.504c1.976-1.957,3.82-4.186,4.535-4.247c0,0-4.135-0.262-9.608,0.776
		c-4.005,0.619-6.265,1.679-6.265,1.679s2.929-2.552,7.902-3.74c0.992-0.288,2.767-0.776,3.99-1.003
		c1.798-0.35,5.158-0.757,5.158-0.757s-1.045,0.823-1.745,1.33c5.65,0.719,12.668,5.243,12.668,5.243S55.604,38.465,42.59,38.623"/>
	<path style="fill:#FFFFFF;" d="M38.408,26.358c2.514-1.019,5.166-0.63,5.166-0.63s-1.629,1.76-3.205,2.933
		c-1.315,0.953-3.075,1.891-4.343,1.937c-0.315,0.016-0.615-0.038-0.854-0.146c0.5-0.111,1.045-0.407,1.599-0.842
		C38.016,28.614,38.716,27.062,38.408,26.358"/>
	<path style="fill:#FFFFFF;" d="M35.203,28.387c-0.369,0.304-0.776,0.384-0.884,0.181c-0.115-0.196,0.1-0.607,0.484-0.941
		c0.369-0.304,0.769-0.388,0.884-0.185S35.58,28.083,35.203,28.387"/>
	<path style="fill:#FFFFFF;" d="M78.458,12.606C78.45,12.613,62.046,41.505,62.054,41.49c-4.074,7.43-11.139,20.333-18.111,21.17
		c-4.097,0.511-5.857-2.468-5.896-4.643c-0.054-2.791,2.706-5.563,5.381-6.258c-1.23-1.011-2.882-1.472-5.058-1.434
		c-4.182,0.085-7.948,2.937-8.386,6.35c-0.223,1.779,0.192,3.397,1.237,4.809c2.268,3.109,7.234,4.869,13.276,4.746
		c8.686-0.169,16.642-2.852,23.63-7.975C74.53,53.559,79.788,46.971,84,38.653l6.053-10.643c5.15-9.109,10.262-12.284,14.49-13.679
		c2.713-0.884,3.913-0.884,7.518-0.884l0.461-0.841"/>
	<path style="fill:#707471;" d="M45.788,66.177c8.187-0.388,15.697-3.056,22.339-7.921C74.53,53.559,79.788,46.971,84,38.653
		l6.053-10.643c5.15-9.109,10.262-12.284,14.49-13.679l-19.982,6.634c-1.63,2.122-3.336,4.678-5.043,7.668
		c-0.999,1.787-4.981,8.759-5.634,9.928c-0.984,1.841-1.784,3.252-2.291,4.093c-2.644,4.428-5.85,8.775-9.555,12.423
		c-5.219,5.15-15.212,10.812-21.669,6.979c-1.568-0.965-2.299-2.648-2.322-4.039c-0.054-2.791,2.706-5.563,5.381-6.258
		c-0.945-0.419-2.552-0.254-3.49-0.065c-2.16,0.45-5.135,2.202-5.834,4.789C32.797,61.308,38.493,65.958,45.788,66.177"/>
	<path style="fill:#707471;" d="M16.162,33.338c0,0.004,0,0.008,0,0.015c10.624,1.418,15.213,3.513,18.042,5.146
		c-2.368-2.44-2.645-4.324-2.906-5.369c-1.807-0.65-3.198-0.819-3.859-0.854C22.02,32.004,17.976,32.531,16.162,33.338"/>
	<path style="fill:#C4CDD3;" d="M104.544,14.332c2.713-0.884,3.913-0.884,7.518-0.884l0.461-0.841H78.458l6.104,8.359"/>
	<path style="fill:#C4CDD3;" d="M31.705,29.021c-3.951,1.514-6.695,3.01-6.695,3.01c1.775-2.368,4.143-4.094,6.734-5.385
		l-0.016-0.111c0,0-8.248,0.477-15.566,6.803c1.814-0.807,5.858-1.334,11.277-1.061c0.661,0.035,2.052,0.204,3.859,0.854
		C30.914,30.955,31.605,29.241,31.705,29.021"/>
	<path style="fill:#0065A3;" d="M190.878,57.514l-0.146,0.246l-0.062,0.107c-0.008,0.016-5.857,10.616-5.857,10.616l51.304-1.864
		l0.015-9.032"/>
	<polyline style="fill:#231F20;" points="191.623,59.182 187.487,66.692 234.717,65.009 234.725,59.251 	"/>
	<polyline style="fill:#707471;" points="192.576,61.35 232.972,61.411 232.972,62.775 190.946,64.374 	"/>
	<polyline style="fill:#C4CDD3;" points="232.972,62.11 232.972,61.411 192.576,61.35 191.777,62.841 	"/>
	<polyline style="fill:#C4CDD3;" points="232.972,62.11 232.972,61.411 192.576,61.35 191.777,62.841 	"/>
	<path style="fill:#231F20;" d="M189.171,19.674l-6.719,11.965c-3.251,5.777-9.048,10.869-12.406,10.869
		c-0.569-0.003-2.438-0.426-0.285-3.82l6.85-12.203c2.652-4.697,6.703-4.785,6.741-4.785l0.277-0.004l1.138-2.029l-22.793-0.027
		c0,0-9.724,17.219-9.793,17.357c-3.697,6.08-8.348,6.987-10.07,6.814c-0.729-0.073-1.16-0.857-0.999-1.726
		c0.308-1.684,1.476-3.463,2.268-4.889l6.034-10.747c2.668-4.697,6.711-4.785,6.75-4.785l0.269-0.004l1.146-2.033l-23.899-0.027
		c0,0-1.345,2.406-1.575,2.817c-1.769-2.133-6.058-3.071-9.655-3.052c-6.058,0.027-12.43,2.099-17.496,5.654
		c-5.473,3.874-8.924,9.128-9.708,14.793c-0.469,3.417,0.2,6.496,1.922,8.932c2.406,3.425,6.703,5.335,11.807,5.316
		c6.534-0.031,12.192-3.894,13.66-5.005c1.383,3.24,4.512,5.051,8.633,5.035c5.042-0.02,10.308-1.587,14.09-4.224
		c1.061-0.766,3.229-2.372,4.344-3.229c0.745,4.428,5.05,7.484,10.631,7.491c5.466,0.008,8.571-1.968,11.953-4.354
		c-2.806,5.066-9.678,17.415-10.877,19.356c-0.792,1.272-1.699,2.414-2.498,3.117c-2.599,2.302-5.658,3.443-7.987,3.013
		c-1.16-0.215-2.075-0.818-2.645-1.779c-0.561-0.919-0.753-2.16-0.576-3.552c0.377-2.813,2.26-6.03,4.912-8.344
		c1.468-1.261,3.759-2.583,3.759-2.583l-49.966,0.031c-7.587-0.058-14.106-3.002-17.427-10.386l-0.43,0.761
		c-4.678,8.313-11.389,15.352-19.421,20.34l-2.006,1.23l69.81-2.49c-0.331,1.499-0.361,3.374,0.238,5.403
		c0.431,1.461,1.229,2.863,2.114,3.844c5.465,6.177,15.543,5.4,15.974,5.365c2.959-0.242,7.979-1.579,13.19-4.677
		c6.55-3.859,11.685-9.333,15.282-16.243l0.861-1.541l19.225-34.123c2.652-4.697,6.703-4.785,6.742-4.785h0.269l1.153-2.026
		 M122.97,39.445c-3.797,5.235-8.809,8.286-10.731,6.488c-0.446-0.415-0.707-1.076-0.776-1.972c-0.23-2.829,1.468-7.203,4.32-11.124
		c3.798-5.266,8.817-8.283,10.731-6.484c0.453,0.415,0.707,1.069,0.784,1.976C127.521,31.151,125.822,35.532,122.97,39.445z"/>
	<path style="fill:#231F20;" d="M219.281,19.893c0,0-11.977,13.599-12.092,13.722c-5.351,0.415-9.862,4.289-10.501,9.013
		c-0.068,0.469-0.092,0.934-0.1,1.384c0,1.741,0.469,3.229,1.399,4.508c2.26,3.778,7.494,5.812,14.736,5.777
		c6.703-0.031,12.606-1.733,17.08-4.993c4.644-3.344,7.511-8.175,8.302-13.937c0.4-2.986,0.516-5.884,0.631-8.952
		c0.131-3.329,0.284-7.506,0.892-11.3 M208.381,44.93c0.415-3.083,4.735-5.842,7.864-5.854l0.868-0.004l-0.438-0.896
		c-0.606-1.284-1.575-2.337-2.767-3.136c0.384-0.407,4.935-5.25,5.58-5.935c-0.046,2.08-0.191,4.151-0.469,6.315
		c-1.122,8.725-3.713,12.469-8.647,12.465C209.719,47.886,207.996,47.767,208.381,44.93z"/>
	<path style="fill:#FFFFFF;" d="M220.135,21.907c-0.523,0.58-12.185,13.821-12.185,13.821l-0.469,0.035
		c-4.551,0.28-8.502,3.44-9.017,7.203c-0.131,0.934-0.361,2.076,0.945,4.224c1.906,3.194,6.757,4.985,13.307,4.943
		c6.372-0.031,11.969-1.63,16.166-4.659c4.166-3.044,6.749-7.364,7.448-12.487c0.385-2.825,0.5-5.666,0.615-8.667
		c0.107-2.706,0.23-5.511,0.538-8.502C234.609,18.517,220.772,21.757,220.135,21.907 M210.426,35.882l10.893-11.619v3.452
		c0,1.718-0.054,4.412-0.522,8.033c-0.854,6.634-2.813,14.344-10.432,14.306c-3.689-0.023-3.997-3.652-3.759-5.47
		c0.484-3.598,3.882-6.2,7.025-7.226C212.824,36.04,210.426,35.882,210.426,35.882z"/>
	<polyline style="fill:#C4CDD3;" points="220.135,21.907 229.251,24.894 237.484,17.817 	"/>
	<path style="fill:#707471;" d="M229.251,24.894l-0.207,4.935c0,0,0.284,13.714-8.956,18.78c-2.951,1.63-7.248,2.091-9.932,1.749
		c-0.691-0.085-1.353-0.47-1.845-0.861c-0.292-0.181-0.538-0.396-0.745-0.634c-0.039-0.031-0.054-0.055-0.054-0.055v-0.011
		c-0.992-1.203-1.054-3.06-0.907-4.213c0.484-3.598,3.882-6.2,7.025-7.226c-4.458-2.268-9.416,1.78-10.569,5.008
		c-0.308,0.903-0.546,1.991-0.354,3.048c0.515,2.775,3.397,6.703,9.993,6.711c6.38,0.008,11.984-1.622,16.182-4.651
		c4.166-3.044,6.749-7.364,7.448-12.487c0.385-2.825,0.5-5.666,0.615-8.667c0.107-2.706,0.23-5.511,0.538-8.502"/>
	<path style="fill:#707471;" d="M220.135,21.907c-0.523,0.58-12.185,13.821-12.185,13.821s1.314-0.027,2.476,0.154l10.893-11.619
		C221.318,24.263,221.402,22.695,220.135,21.907"/>
	<path style="fill:#FFFFFF;" d="M158.568,80.464c0.023,0,0.047-0.004,0.062-0.012c0.039-0.008,0.077-0.02,0.115-0.027
		c-0.076,0.016-0.153,0.031-0.23,0.05C158.53,80.471,158.546,80.467,158.568,80.464"/>
	<path style="fill:#FFFFFF;" d="M154.287,80.933c-6.796-0.104-12.261-4.636-12.253-10.209c0.007-4.382,3.405-8.109,8.155-9.543
		c-0.022,0.026-0.046,0.058-0.076,0.088c0.03-0.03,0.054-0.062,0.084-0.092c-1.922,0-4.182,0.396-5.98,1.341
		c-0.469,0.238-0.899,0.496-1.299,0.754c-0.077,0.046-0.146,0.092-0.216,0.142c-1.206,0.823-2.113,1.733-2.79,2.698
		c-2.367,3.471-1.545,7.634,0.6,10.044c4.912,5.542,14.229,4.827,14.621,4.796c0.384-0.034,0.83-0.072,1.322-0.13
		c-0.361,0.038-0.723,0.068-1.107,0.092C154.994,80.933,154.641,80.943,154.287,80.933"/>
	<path style="fill:#FFFFFF;" d="M177.794,40.56c0.016-0.023,0.038-0.042,0.062-0.058C177.832,40.518,177.81,40.537,177.794,40.56"/>
	<path style="fill:#FFFFFF;" d="M126.283,23.863c-0.115-0.034-0.23-0.058-0.354-0.084C126.053,23.806,126.168,23.829,126.283,23.863
		"/>
	<path style="fill:#FFFFFF;" d="M174.942,42.804c0.107-0.065,0.207-0.13,0.308-0.2C175.149,42.674,175.05,42.739,174.942,42.804"/>
	<path style="fill:#FFFFFF;" d="M176.856,41.378c0.046-0.042,0.1-0.084,0.153-0.13C176.956,41.294,176.902,41.336,176.856,41.378"/>
	<path style="fill:#FFFFFF;" d="M175.903,42.132c0.076-0.058,0.153-0.119,0.238-0.181C176.057,42.013,175.979,42.074,175.903,42.132
		"/>
	<path style="fill:#FFFFFF;" d="M173.981,43.393c0.123-0.065,0.246-0.135,0.369-0.208C174.228,43.258,174.104,43.327,173.981,43.393
		"/>
	<path style="fill:#FFFFFF;" d="M124.961,23.675c0.13,0,0.246,0.011,0.369,0.019C125.207,23.687,125.091,23.675,124.961,23.675"/>
	<path style="fill:#FFFFFF;" d="M190.132,21.842c-0.685,1.203-6.188,11.027-6.188,11.027c-0.284,0.496-0.592,0.995-0.914,1.487
		c-5.404,8.736-11.7,13.313-17.296,13.303c-4.659-0.008-5.819-2.975-6.15-3.913c-0.33-0.945-0.092-3.156,1.199-5.481l6.396-11.408
		l10.739-5.031v0.004c0-0.004,0-0.004,0-0.004c-5.95-0.007-14.075-0.015-14.997-0.015c-3.344,5.911-9.271,16.458-9.271,16.458
		c-1.661,2.725-3.645,4.624-5.573,5.919c0.038-0.019,0.084-0.054,0.107-0.062c0,0-4.889,3.644-9.693,3.636
		c-4.789-0.008-5.973-3.017-6.319-3.974c-0.33-0.957,0.131-3.232,1.423-5.558l6.403-11.411l10.73-5.023
		c-5.957-0.012-15.166-0.023-16.089-0.027c-0.477,0.842-2.529,4.524-2.529,4.524s-0.43-1.222-1.053-2.052
		c-1.199-1.622-4.166-2.721-8.602-2.702c-11.054,0.046-23.907,7.549-25.437,18.661c-0.385,2.783,0.123,5.188,1.514,7.164
		c2.06,2.91,5.865,4.551,10.431,4.528c7.072-0.031,13.053-4.931,13.114-4.978l1.322-1.084l0.607,1.803
		c0.945,2.752,3.574,4.309,7.257,4.293c4.734-0.022,9.67-1.483,13.19-3.939c1.407-0.995,6.78-5.054,6.78-5.054l0.131,2.637
		c0.169,3.632,4.027,6.388,8.963,6.392c5.304,0.008,8.103-1.953,11.646-4.474l6.143-4.339l-3.121,5.619
		c-0.431,0.772-10.616,19.164-12.153,21.654c-0.892,1.457-1.938,2.737-2.867,3.579c-3.021,2.671-6.511,3.932-9.332,3.405
		c-1.292-0.238-2.383-0.865-3.206-1.799c4.559,5.935,12.392,1.837,13.414,1.249c9.771-5.607,15.836-17.703,16.604-19.118
		c0.792-1.445,16.927-30.844,16.927-30.844l10.731-5.027l0,0l0,0C199.164,21.857,191.047,21.846,190.132,21.842 M124.323,40.887
		c-2.099,2.89-4.528,5.219-6.841,6.564c-0.069,0.035-0.131,0.062-0.192,0.096c0.054-0.03,0.1-0.049,0.154-0.076
		c-0.569,0.384-3.397,2.202-6.734,2.198c-3.736-0.004-6.434-3.009-6.742-6.726c-0.43-5.281,2.022-9.655,4.728-12.587
		c3.152-3.433,6.772-5.416,10.5-6.446c0.907-0.254,1.799-0.45,2.675-0.534c2.052-0.208,3.713,0.062,4.881,0.661
		c0.008,0.007,0.023,0.019,0.046,0.031c-0.077-0.031-0.153-0.058-0.223-0.088c0.377,0.157,0.73,0.369,1.038,0.657
		c0.845,0.772,1.353,1.991,1.476,3.486C129.357,31.551,127.536,36.447,124.323,40.887z"/>
	<path style="fill:#FFFFFF;" d="M122.163,24.39c-0.292,0.134-0.584,0.28-0.884,0.45C121.579,24.67,121.871,24.524,122.163,24.39"/>
	<path style="fill:#FFFFFF;" d="M124.577,23.706c-0.123,0.011-0.246,0.019-0.377,0.042
		C124.331,23.725,124.454,23.717,124.577,23.706"/>
	<path style="fill:#FFFFFF;" d="M123.808,23.821c-0.138,0.035-0.284,0.073-0.43,0.111C123.523,23.894,123.669,23.856,123.808,23.821
		"/>
	<path style="fill:#FFFFFF;" d="M123.008,24.056c-0.177,0.054-0.346,0.127-0.523,0.196
		C122.663,24.183,122.832,24.109,123.008,24.056"/>
	<path style="fill:#FFFFFF;" d="M88.916,52.494c-3.793,6.177-8.69,11.627-14.417,15.989l14.986-5.442"/>
	<path style="fill:#FFFFFF;" d="M171.16,44.522c0.185-0.039,0.354-0.073,0.538-0.127C171.514,44.449,171.345,44.484,171.16,44.522"
		/>
	<path style="fill:#FFFFFF;" d="M173.036,43.884c0.138-0.065,0.276-0.126,0.423-0.2C173.313,43.758,173.174,43.819,173.036,43.884"
		/>
	<path style="fill:#FFFFFF;" d="M202.247,25.432c-1.314,2.36-19.672,35.368-19.779,35.583
		C182.468,61.015,200.925,27.803,202.247,25.432"/>
	<path style="fill:#FFFFFF;" d="M156.616,80.802c0.1-0.012,0.208-0.027,0.308-0.042c0.046-0.004,0.084-0.016,0.123-0.023
		C156.9,80.76,156.763,80.786,156.616,80.802L156.616,80.802"/>
	<path style="fill:#FFFFFF;" d="M172.098,44.261c0.154-0.054,0.315-0.104,0.469-0.169C172.413,44.157,172.252,44.208,172.098,44.261
		"/>
	<path style="fill:#FFFFFF;" d="M170.046,44.653c0.261,0,0.53-0.023,0.807-0.065C170.576,44.63,170.307,44.653,170.046,44.653"/>
	<path style="fill:#707471;" d="M133.594,38.23c-1.292,2.326-1.753,4.601-1.423,5.558c0.347,0.957,1.53,3.966,6.319,3.974
		c4.805,0.008,9.693-3.636,9.693-3.636c-0.023,0.008-0.069,0.042-0.107,0.062c-0.577,0.346-3.113,2.014-6.104,1.784
		c-1.838-0.166-2.998-2.241-2.622-4.343c0.262-1.388,0.838-2.552,1.423-3.625c0,0,7.156-12.784,7.156-12.788
		c0.854-1.495,1.83-2.613,2.798-3.42l-10.73,5.023"/>
	<path style="fill:#707471;" d="M167.178,26.857l-6.396,11.408c-1.291,2.325-1.529,4.536-1.199,5.481
		c0.331,0.938,1.491,3.905,6.15,3.913c5.596,0.011,11.892-4.566,17.296-13.303c0.084-0.135,0.169-0.262,0.261-0.404
		c-1.468,2.329-3.39,4.662-5.435,6.549c-0.023,0.016-0.046,0.035-0.062,0.058c-0.261,0.235-0.522,0.465-0.784,0.688
		c-0.054,0.046-0.107,0.088-0.153,0.13c-0.238,0.2-0.477,0.392-0.715,0.573c-0.085,0.062-0.162,0.123-0.238,0.181
		c-0.224,0.165-0.438,0.323-0.653,0.473c-0.101,0.069-0.2,0.135-0.308,0.2c-0.2,0.131-0.393,0.262-0.592,0.381
		c-0.123,0.073-0.246,0.142-0.369,0.208c-0.177,0.104-0.346,0.204-0.522,0.292c-0.146,0.073-0.285,0.135-0.423,0.2
		c-0.154,0.069-0.315,0.146-0.47,0.208c-0.153,0.065-0.314,0.116-0.469,0.169c-0.131,0.046-0.261,0.096-0.399,0.134
		c-0.185,0.054-0.354,0.088-0.538,0.127c-0.1,0.019-0.208,0.05-0.308,0.065c-0.276,0.042-0.546,0.065-0.807,0.065
		c-3.29-0.004-4.098-3.263-2.084-6.611c0,0,7.157-12.788,7.157-12.792c0.86-1.491,1.829-2.614,2.798-3.421v-0.004"/>
	<path style="fill:#707471;" d="M144.217,62.518c-0.477,0.238-0.899,0.496-1.299,0.754
		C143.317,63.014,143.748,62.756,144.217,62.518"/>
	<path style="fill:#707471;" d="M142.702,63.413c-0.153,0.104-0.314,0.204-0.461,0.312l-52.756-0.684l-14.986,5.442
		c8.84-0.404,65.413-2.372,65.413-2.372C140.589,65.146,141.496,64.236,142.702,63.413"/>
	<path style="fill:#C4CDD3;" d="M142.241,63.725c0.146-0.107,0.308-0.207,0.461-0.312c0.069-0.05,0.139-0.096,0.216-0.142
		c0.399-0.258,0.822-0.516,1.299-0.754c1.799-0.945,4.059-1.341,5.98-1.341c-2.651,0.004-5.857,0.004-9.301,0.008
		c-14.921,0.004-34.484,0.015-34.484,0.015c-6.312,0.035-11.838-2.175-15.521-6.126c-0.53-0.565-1.015-1.165-1.46-1.799
		c-0.162-0.22-0.331-0.492-0.515-0.78l0.569,10.547"/>
	<path style="fill:#707471;" d="M111.14,47.651c-0.838-0.808-1.345-1.991-1.468-3.486c-0.277-3.428,1.545-8.329,4.758-12.764
		c2.106-2.895,4.535-5.22,6.849-6.561c0.3-0.169,0.592-0.315,0.884-0.45c0.108-0.05,0.208-0.088,0.323-0.139
		c0.177-0.069,0.346-0.142,0.523-0.196c0.123-0.046,0.246-0.084,0.369-0.123c0.146-0.039,0.292-0.077,0.43-0.111
		c0.139-0.027,0.262-0.054,0.392-0.073c0.131-0.023,0.254-0.031,0.377-0.042c0.13-0.012,0.261-0.031,0.384-0.031
		c0.13,0,0.246,0.011,0.369,0.019c0.215,0.016,0.408,0.046,0.6,0.084c0.124,0.027,0.239,0.05,0.354,0.084
		c0.1,0.035,0.192,0.073,0.292,0.116c0.069,0.031,0.146,0.058,0.223,0.088c-0.022-0.012-0.038-0.023-0.046-0.031
		c-1.168-0.6-2.829-0.869-4.881-0.661c-0.876,0.084-1.768,0.28-2.675,0.534c-3.728,1.03-7.349,3.013-10.5,6.446
		c-2.706,2.933-5.158,7.306-4.728,12.587c0.308,3.717,3.006,6.722,6.742,6.726c3.336,0.004,6.165-1.814,6.734-2.198
		c-0.054,0.027-0.1,0.046-0.154,0.076C114.745,48.92,112.577,48.974,111.14,47.651"/>
	<path style="fill:#707471;" d="M194.383,26.892c0,0-16.135,29.399-16.927,30.844c-0.769,1.415-6.834,13.511-16.604,19.118
		c-1.022,0.588-8.855,4.686-13.414-1.249c-0.046-0.062-0.1-0.104-0.138-0.166c0,0,0-0.007,0-0.011
		c-0.17-0.208-0.331-0.419-0.477-0.657c-0.069-0.112-0.131-0.231-0.192-0.347c-0.054-0.115-0.107-0.23-0.161-0.346
		c-0.416-0.941-0.631-1.998-0.631-3.167c0-0.431,0.031-0.864,0.093-1.314c0.376-2.848,1.906-5.857,4.182-8.329
		c0.03-0.03,0.054-0.062,0.076-0.088c-4.75,1.434-8.148,5.161-8.155,9.543c-0.008,5.573,5.457,10.104,12.253,10.209
		c0.354,0.011,0.707,0,1.061-0.02c0.385-0.023,0.746-0.054,1.107-0.092c0.054-0.008,0.107-0.012,0.161-0.02
		c0.146-0.016,0.284-0.042,0.431-0.065c0.499-0.069,0.983-0.157,1.468-0.262c0.077-0.019,0.154-0.034,0.23-0.05
		c0.438-0.104,0.885-0.219,1.338-0.354c3.328-0.987,15.82-6.011,22.385-19.057c0.107-0.215,18.465-33.223,19.779-35.583
		c0.046-0.084,0.084-0.142,0.084-0.142c0.854-1.491,1.822-2.614,2.783-3.425l0,0"/>
	<polyline style="fill:#C4CDD3;" points="134.639,21.769 150.728,21.796 139.997,26.819 	"/>
	<polyline style="fill:#C4CDD3;" points="162.92,21.811 177.917,21.826 167.178,26.857 	"/>
	<polyline style="fill:#C4CDD3;" points="190.132,21.842 205.114,21.865 194.383,26.892 	"/>
	<path style="fill:#0065A3;" d="M239.19,51.099h-0.745v2.406h-0.5v-2.406h-0.738v-0.522h1.983 M242.558,53.505h-0.5v-2.329h-0.015
		l-0.715,2.329h-0.484l-0.692-2.329h-0.008v2.329h-0.499v-2.929h0.868l0.569,1.914h0.015l0.593-1.914h0.868V53.505z"/>
</g>
</svg>
