<?xml version="1.0" encoding="ISO-8859-1"?>
<!-- Generator: Adobe Illustrator 14.0.0, SVG Export Plug-In . SVG Version: 6.00 Build 43363)  -->
<!DOCTYPE svg PUBLIC "-//W3C//DTD SVG 1.1//EN" "http://www.w3.org/Graphics/SVG/1.1/DTD/svg11.dtd">
<svg version="1.1" id="Layer_1" xmlns="http://www.w3.org/2000/svg" xmlns:xlink="http://www.w3.org/1999/xlink" x="0px" y="0px" width="250px" height="187px" viewBox="0 0 250 187" style="" xml:space="preserve">
<g>
	<path style="fill: rgb(255, 255, 255);" d="M215.034,28.937v-8.95c0-4.292-2.123-8.299-5.836-10.989c-8.353-6.063-26.904-5.921-46.17,0.357   c-9.933,3.23-23.211,6.938-38.033,6.907c-14.813,0.031-28.091-3.676-38.015-6.907c-19.266-6.278-37.827-6.42-46.18-0.357   c-3.712,2.69-5.836,6.697-5.836,10.989v8.95H5v91.231l10.699,10.703h41.95c8.013,29.68,35.167,51.583,67.355,51.583   c32.178,0,59.342-21.903,67.355-51.583h41.933L245,120.168V28.937"/>
	<path style="fill: rgb(185, 158, 102);" d="M212.036,31.931V19.982c0-3.315-1.678-6.438-4.604-8.562c-7.487-5.439-25.37-5.113-43.484,0.781   c-10.138,3.306-23.729,7.085-38.934,7.054c-15.232,0.031-28.823-3.748-38.96-7.054C67.938,6.303,50.055,5.981,42.56,11.42   c-2.918,2.124-4.596,5.247-4.596,8.566v11.944H7.999v86.996l8.941,8.946h37.693c0,0,0-5.515,0-7.3   c1.294-0.544,2.588-1.075,3.9-1.584c3.186,33.87,31.768,60.471,66.472,60.471c34.695,0,63.287-26.601,66.463-60.471   c1.312,0.509,2.605,1.04,3.891,1.58c0,1.789,0,7.304,0,7.304h37.693l8.959-8.946V31.931"/>
	<path style="fill: rgb(255, 255, 255);" d="M144.44,108.933l-0.634,0.29l-0.107,1.776l-3.542-2.414c-4.971-0.357-10.021-0.549-15.162-0.549   c-4.748,0-9.423,0.169-14.037,0.473l0.089,0.566l-1.205-0.49c-1.285,0.089-2.552,0.191-3.819,0.308l-3.561,2.61l-0.161-1.767   l0.741-0.545c-2.98,0.317-5.934,0.683-8.834,1.124c0.482,6.167,2.41,11.932,5.417,16.969l0.357-1.062l4.498-0.995l0.464-1.709   l3.774,3.922l-0.464,1.718l-3.212-3.342l-0.303,0.924l-4.801,1.053c0.411,0.669,0.848,1.32,1.303,1.963l1.687-0.191l0.642-1.655   l3.347,4.296l-0.643,1.655l-2.847-3.653l-0.401,0.874l-0.741,0.089c7.166,9.236,18.355,15.192,30.947,15.192   c7.236,0,14.001-1.963,19.819-5.385l-4.837,0.638l-1.098-1.392l4.596-0.603l-0.563-0.79l2.204-4.975l1.026,1.454l-1.865,4.212   l0.955,1.2c0.491-0.29,0.973-0.598,1.445-0.91l0.804-2.48l1.026,1.178c2.766-2.079,5.247-4.515,7.37-7.246   c2.749-5.577,4.302-11.882,4.302-18.557c0-0.723-0.018-1.44-0.054-2.15c0.036,0.701,0.054,1.396,0.054,2.102   C160.762,110.963,152.739,109.709,144.44,108.933 M109.736,124.272l-3.543-2.989l-0.214,0.95l-5.158,1.718l0.383-1.735l4.373-1.455   l0.286-1.749l4.159,3.507L109.736,124.272z M110.7,119.267l-3.829-2.606l-0.107,0.955l-4.961,2.249l0.196-1.763l4.203-1.9   l0.098-1.776l4.498,3.065L110.7,119.267z M107.059,111.989l-0.009,0.968l-4.703,2.749l0.026-1.776l3.971-2.329l-0.08-1.771   l4.792,2.575l0.08,1.775L107.059,111.989z M138.863,111.239l4.077,2.195l0.01-0.964l4.702-2.753l-0.026,1.776l-3.971,2.329   l0.08,1.771l-4.792-2.578L138.863,111.239z M138.952,116.344l4.283,1.758l-0.089-0.964l4.39-3.221l0.161,1.771l-3.712,2.722   l0.268,1.754l-5.033-2.065L138.952,116.344z M139.567,121.412l4.444,1.299l-0.188-0.946l4.033-3.663l0.34,1.74l-3.409,3.101   l0.455,1.718l-5.229-1.53L139.567,121.412z M140.71,126.388l4.56,0.829l-0.294-0.928l3.632-4.051l0.526,1.695l-3.069,3.436   l0.624,1.659l-5.354-0.981L140.71,126.388z M142.361,131.211l4.622,0.356l-0.384-0.888l3.186-4.413l0.705,1.633l-2.695,3.73   l0.786,1.593l-5.426-0.424L142.361,131.211z M149.955,135.694l0.937,1.495l-5.435,0.151l-0.954-1.499l4.631-0.125l-0.473-0.848   l2.713-4.716l0.865,1.553L149.955,135.694z"/>
	<path style="fill: rgb(171, 159, 149);" d="M95.342,142.762l-2.052-0.415c1.33,1.429,2.757,2.767,4.274,4.003l-1.571-4.311"/>
	<path style="fill: rgb(171, 159, 149);" d="M150.169,144.314l4.507-1.079l-0.634-0.732l0.874-2.69c-0.473,0.313-0.954,0.62-1.445,0.91   l0.143,0.184l-0.562,0.071c-5.818,3.422-12.583,5.385-19.819,5.385c-12.592,0-23.782-5.956-30.947-15.192l-4.667,0.531l0.74-1.615   l2.883-0.33c-0.456-0.643-0.893-1.294-1.303-1.963l-0.518,0.116l0.206-0.625c-3.007-5.037-4.935-10.802-5.417-16.969   c2.9-0.441,5.854-0.807,8.834-1.124l2.972-2.182l-0.268-1.754l5.033,2.066l0.179,1.187c4.613-0.304,9.289-0.473,14.037-0.473   c5.14,0,10.191,0.191,15.162,0.549l-0.955-0.651l0.098-1.776l3.838,2.61l0.106-0.964l4.953-2.244l-0.196,1.763l-3.561,1.61   c8.299,0.776,16.321,2.03,23.978,3.726c0-0.705-0.018-1.4-0.054-2.102c-0.026-0.584-0.08-1.164-0.134-1.74   c0-0.071-0.009-0.143-0.009-0.209c-0.009-0.072-0.009-0.147-0.019-0.215c-7.603-1.668-15.554-2.913-23.781-3.676l-0.276,1.699   l-2.275-1.923c-5.515-0.441-11.146-0.674-16.875-0.674c-6.827,0-13.528,0.33-20.06,0.955l-2.793,2.543l-0.339-1.74l0.58-0.535   c-7.094,0.776-13.975,1.9-20.587,3.351c-0.134,1.419-0.205,2.865-0.205,4.314c0,10.553,3.766,20.23,10.021,27.748l4.105,0.826   l1.115-1.379l1.865,5.108l-1.106,1.365c7.487,6.086,17.017,9.74,27.413,9.74c11.181,0,21.363-4.226,29.055-11.168l-2.642,0.634    M100.911,142.525l-2.035-4.163l-0.58,0.776l-5.408-0.508l1.053-1.438l4.587,0.438l0.964-1.485l2.391,4.89L100.911,142.525z    M103.82,138.327l-2.454-3.922l-0.491,0.83l-5.443,0.054l0.901-1.535l4.604-0.04l0.803-1.58l2.882,4.614L103.82,138.327z"/>
	<path style="fill: rgb(171, 159, 149);" d="M106.854,108.281l-0.83,0.611c1.267-0.116,2.534-0.219,3.819-0.308l-3.079-1.263"/>
	<path style="fill: rgb(171, 159, 149);" d="M164.482,130.8c-0.125,0.156-0.241,0.313-0.366,0.464c-2.123,2.731-4.604,5.167-7.37,7.246   l0.143,0.161l-1.428,4.381l0.294,0.295C159.352,139.732,162.323,135.498,164.482,130.8"/>
	<path style="fill: rgb(205, 17, 65);" d="M96.833,139.902l-1.115,1.379l-4.105-0.826c0.304,0.357,0.607,0.714,0.919,1.058   c0.25,0.281,0.5,0.558,0.758,0.83v0.004l2.052,0.415l0.651-0.723l1.571,4.311c0.009,0.009,0.018,0.013,0.027,0.022v0.004   l1.106-1.365"/>
	<polyline style="fill: rgb(205, 17, 65);" points="98.528,137.631 93.941,137.193 92.889,138.631 98.296,139.139 98.876,138.362 100.911,142.525 101.883,141.035 99.492,136.146"/>
	<polyline style="fill: rgb(205, 17, 65);" points="100.938,133.714 96.333,133.754 95.432,135.289 100.875,135.235 101.366,134.405 103.82,138.327 104.623,136.748 101.741,132.134"/>
	<polyline style="fill: rgb(205, 17, 65);" points="103.427,130.207 106.274,133.86 106.917,132.205 103.57,127.909 102.928,129.564 101.241,129.756 98.358,130.086 97.618,131.701 102.285,131.17 103.026,131.081"/>
	<polyline style="fill: rgb(205, 17, 65);" points="105.042,125.816 108.255,129.158 108.719,127.44 104.944,123.519 104.48,125.228 99.983,126.223 99.626,127.284 99.42,127.909 99.938,127.793 104.739,126.74"/>
	<polyline style="fill: rgb(205, 17, 65);" points="105.578,120.761 101.205,122.216 100.822,123.951 105.979,122.233 106.193,121.283 109.736,124.272 110.022,122.519 105.863,119.012"/>
	<polyline style="fill: rgb(205, 17, 65);" points="106.203,116.201 102,118.102 101.803,119.864 106.765,117.615 106.872,116.66 110.7,119.267 110.798,117.49 106.301,114.425"/>
	<polyline style="fill: rgb(205, 17, 65);" points="106.265,109.829 106.345,111.601 102.374,113.93 102.348,115.706 107.05,112.957 107.059,111.989 111.137,114.18 111.057,112.404"/>
	<polyline style="fill: rgb(205, 17, 65);" points="102.463,111.503 106.024,108.893 106.854,108.281 106.765,107.322 109.843,108.585 111.048,109.075 110.959,108.509 110.78,107.322 105.748,105.256 106.015,107.01 103.043,109.191 102.303,109.736"/>
	<path style="fill: rgb(205, 17, 65);" d="M102.142,107.317l2.793-2.543c-0.018,0.005-0.027,0.005-0.045,0.009   c-0.839,0.08-1.668,0.161-2.507,0.254v0.005l-0.58,0.535"/>
	<path style="fill: rgb(205, 17, 65);" d="M144.422,104.717c-0.848-0.081-1.704-0.156-2.552-0.224l2.275,1.923"/>
	<polyline style="fill: rgb(205, 17, 65);" points="143.807,109.223 144.44,108.933 148.001,107.322 148.197,105.56 143.244,107.804 143.138,108.768 139.3,106.157 139.202,107.934 140.157,108.585 143.699,110.999"/>
	<polyline style="fill: rgb(205, 17, 65);" points="143.655,113.823 147.626,111.494 147.652,109.718 142.95,112.471 142.94,113.435 138.863,111.239 138.943,113.016 143.735,115.594"/>
	<polyline style="fill: rgb(205, 17, 65);" points="143.985,118.409 147.697,115.688 147.536,113.917 143.146,117.138 143.235,118.102 138.952,116.344 139.22,118.098 144.253,120.163"/>
	<polyline style="fill: rgb(205, 17, 65);" points="144.788,122.942 148.197,119.842 147.857,118.102 143.824,121.765 144.012,122.711 139.567,121.412 140.014,123.13 145.243,124.66"/>
	<polyline style="fill: rgb(205, 17, 65);" points="146.064,127.369 149.134,123.934 148.607,122.238 144.976,126.289 145.27,127.217 140.71,126.388 141.335,128.047 146.688,129.028"/>
	<polyline style="fill: rgb(205, 17, 65);" points="147.795,131.63 150.49,127.899 149.785,126.267 146.6,130.68 146.983,131.567 142.361,131.211 143.155,132.799 148.581,133.223"/>
	<polyline style="fill: rgb(205, 17, 65);" points="148.661,134.869 149.134,135.717 144.503,135.842 145.457,137.341 150.892,137.189 149.955,135.694 152.239,131.706 151.374,130.153"/>
	<polyline style="fill: rgb(205, 17, 65);" points="154.381,135.311 153.354,133.856 151.15,138.831 151.713,139.621 147.117,140.224 148.215,141.615 153.052,140.978 153.613,140.906 153.471,140.723 152.516,139.522"/>
	<path style="fill: rgb(205, 17, 65);" d="M156.889,138.671l-0.143-0.161l-1.026-1.178l-0.804,2.48l-0.874,2.69l0.634,0.732l-4.507,1.079   l1.249,1.268l2.642-0.634h0.009c0.036-0.031,0.071-0.071,0.107-0.098c0.544-0.491,1.062-0.986,1.579-1.5v-0.004l-0.294-0.295"/>
	<path style="fill: rgb(0, 40, 93);" d="M208.547,35.429V19.982c0-1.285-0.419-3.734-3.168-5.729c-6.541-4.752-23.504-4.212-40.343,1.276   c-10.396,3.382-24.326,7.26-40.032,7.224c-15.706,0.036-29.653-3.841-40.04-7.224c-16.839-5.488-33.812-6.028-40.353-1.276   c-2.74,1.995-3.159,4.444-3.159,5.733v15.442H11.487v82.052l6.907,6.898h32.75v-6.126c3.4-1.5,6.942-2.9,10.61-4.19   c0.723,34.312,28.761,61.903,63.25,61.903c34.481,0,62.528-27.592,63.242-61.903c3.668,1.29,7.21,2.69,10.61,4.19v6.126h32.749   l6.907-6.898V35.429 M155.755,143.351c-0.544,0.545-1.106,1.076-1.687,1.598c-7.691,6.942-17.883,11.168-29.064,11.168   c-10.396,0-19.926-3.654-27.413-9.74c-0.009-0.014-0.018-0.018-0.027-0.026c-1.517-1.236-2.945-2.574-4.274-4.003   c-0.571-0.615-1.133-1.244-1.678-1.892c-6.255-7.518-10.021-17.195-10.021-27.748c0-1.449,0.071-2.896,0.205-4.314   c6.612-1.45,13.493-2.579,20.587-3.355c0.856-0.093,1.704-0.178,2.552-0.263c6.532-0.625,13.233-0.955,20.06-0.955   c5.729,0,11.36,0.232,16.875,0.674c0.848,0.067,1.704,0.143,2.552,0.224c8.228,0.763,16.179,2.008,23.781,3.676   c0.152,1.419,0.215,2.865,0.215,4.314C168.418,124.67,163.581,135.498,155.755,143.351z"/>
	<path style="fill: rgb(171, 159, 149);" d="M193.457,33.653v4.538c0-0.906-2.686-1.602-6.005-1.562c-3.32,0.036-6.015,0.803-6.015,1.705   c0,2.485,5.068,4.435,11.306,4.359c6.238-0.076,11.298-2.15,11.298-4.627C204.041,35.772,200.052,34.015,193.457,33.653"/>
	<path style="fill: rgb(171, 159, 149);" d="M62.548,36.629c-3.311-0.04-6.006,0.656-6.006,1.562v-4.542c-6.594,0.366-10.592,2.124-10.592,4.417   c0,2.477,5.069,4.551,11.315,4.631c6.229,0.071,11.288-1.878,11.288-4.363C68.554,37.433,65.868,36.665,62.548,36.629"/>
	<path style="fill: rgb(205, 17, 65);" d="M187.452,36.629V39.9c3.319-0.044,6.005-0.808,6.005-1.709   C193.457,37.285,190.771,36.589,187.452,36.629"/>
	<path style="fill: rgb(205, 17, 65);" d="M56.542,38.191c0,0.901,2.695,1.665,6.006,1.709v-3.271C59.238,36.589,56.542,37.285,56.542,38.191"/>
	<path style="fill: rgb(205, 17, 65);" d="M83.572,37.874c11.181,3.641,25.459,7.482,41.423,7.447c15.973,0.036,30.242-3.806,41.432-7.447   c21.229-6.916,37.613-4.457,37.613,0.192V19.982c0-4.636-16.384-7.094-37.613-0.179c-11.19,3.637-25.459,7.478-41.432,7.447   c-15.964,0.031-30.242-3.81-41.423-7.447c-21.229-6.916-37.622-4.457-37.622,0.183v18.079   C45.95,33.417,62.343,30.958,83.572,37.874"/>
	<path style="fill: rgb(255, 255, 255);" d="M66.207,18.996l-2.133-0.04c-0.063,0-0.125,0.027-0.169,0.076c-0.045,0.044-0.071,0.098-0.071,0.161   c0,0.004,0.036,0.54,0.036,0.54c0,0.536-0.241,1.473-0.366,1.923c0,0-0.812,3.047-1.205,4.497   c-0.411-1.218-2.356-7.054-2.356-7.054c-0.026-0.094-0.116-0.156-0.223-0.156l-0.099-0.004c-0.098,0-0.196,0.067-0.223,0.156   c0,0-1.99,5.822-2.41,7.036c-0.286-1.093-1.106-4.274-1.106-4.274c-0.294-1.084-0.437-1.807-0.437-2.146l0.053-0.558   c0-0.009,0-0.018,0-0.027c0-0.053-0.018-0.12-0.063-0.165c-0.044-0.049-0.107-0.084-0.169-0.08l-2.204,0.022   c-0.08,0-0.152,0.036-0.196,0.103c-0.044,0.071-0.054,0.156-0.018,0.228c0.473,1.004,0.857,2.445,0.937,2.78l2.168,8.209   c0.018,0.107,0.116,0.183,0.214,0.183l1.321,0.004c0.098,0,0.187-0.067,0.223-0.161c0,0,1.579-4.671,1.936-5.738   c0.357,1.071,1.919,5.755,1.919,5.755c0.036,0.094,0.125,0.161,0.232,0.161l1.294,0.005c0.107,0,0.205-0.072,0.232-0.174l2.499-9.2   c0.196-0.776,0.277-0.99,0.598-1.727c0.027-0.076,0.018-0.156-0.018-0.223C66.358,19.041,66.287,18.996,66.207,18.996"/>
	<path style="fill: rgb(255, 255, 255);" d="M79.958,29.919l-3.623-8.826c-0.027-0.067-0.089-0.121-0.161-0.138l-0.089-0.018   c-0.098-0.026-0.214,0.018-0.259,0.112l-4.114,7.447c-0.893,1.606-1.187,1.892-1.508,2.195c-0.063,0.062-0.089,0.151-0.063,0.236   c0.027,0.084,0.089,0.147,0.17,0.169l2.605,0.593c0.08,0.014,0.152-0.004,0.205-0.053c0.054-0.045,0.081-0.107,0.081-0.179   c0-0.004,0-0.009,0-0.013c0-0.054,0-0.098,0-0.156c0-0.785,0.393-1.557,0.518-1.82c0,0,0.312-0.598,0.464-0.893   c0.313,0.071,3.222,0.732,3.436,0.785c0.081,0.201,0.589,1.5,0.589,1.5c0.375,0.95,0.419,1.495,0.419,1.945   c0,0.107,0.081,0.205,0.188,0.228l2.534,0.549c0.098,0.018,0.188-0.018,0.241-0.089c0.053-0.08,0.063-0.183,0.009-0.263   C81.208,32.596,80.726,31.806,79.958,29.919 M75.005,26.996c0.17-0.352,0.688-1.338,0.973-1.896   c0.223,0.603,0.687,1.803,0.892,2.32C76.353,27.3,75.38,27.077,75.005,26.996z"/>
	<path style="fill: rgb(255, 255, 255);" d="M90.64,30.334c-1.223-1.107-2.115-1.91-2.115-2.852c0-0.299,0.098-0.535,0.294-0.678   c0.241-0.174,0.607-0.21,1.026-0.081c0.875,0.263,1.428,0.888,1.874,1.388c0.062,0.071,0.169,0.098,0.259,0.063   c0.098-0.036,0.151-0.121,0.151-0.219v-1.691c0-0.076-0.036-0.147-0.098-0.192l-0.044-0.04c-0.509-0.366-1.187-0.87-2.142-1.16   c-0.919-0.277-1.785-0.156-2.427,0.317c-0.643,0.473-0.982,1.227-0.982,2.137c0,1.767,0.937,2.664,3.204,4.823   c0.294,0.29,0.803,0.883,0.803,1.543c0,0.299-0.125,0.567-0.339,0.728c-0.241,0.178-0.563,0.214-0.919,0.107   c-0.865-0.263-1.445-1.12-1.9-1.816c-0.063-0.089-0.188-0.143-0.286-0.111c-0.098,0.026-0.179,0.098-0.179,0.205v2.32   c0,0.085,0.045,0.156,0.116,0.201c0.491,0.299,1,0.602,1.856,0.861c1.231,0.371,2.249,0.29,2.963-0.236   c0.58-0.438,0.892-1.142,0.892-2.043C92.647,32.654,92.067,31.623,90.64,30.334"/>
	<path style="fill: rgb(255, 255, 255);" d="M107.229,29.455c0.018-0.063,0.018-0.134-0.018-0.192c-0.027-0.062-0.089-0.107-0.152-0.116   l-2.454-0.509c-0.08-0.018-0.161,0.022-0.214,0.081c-0.036,0.049-0.054,0.107-0.054,0.165c0,0.027,0,0.053,0.009,0.076   c0.188,0.625,0.393,1.334,0.393,2.784c0,0,0,1.236,0,1.651c-0.473-0.098-3.793-0.785-4.114-0.848c0-0.321,0-2.035,0-2.035   c0-1.285,0.214-1.838,0.393-2.28l0.018-0.049c0.009-0.027,0.018-0.058,0.018-0.089c0-0.036-0.009-0.076-0.027-0.111   c-0.036-0.063-0.089-0.103-0.161-0.116l-2.463-0.513c-0.081-0.014-0.169,0.013-0.223,0.08c-0.054,0.058-0.071,0.147-0.054,0.223   c0.161,0.468,0.411,1.254,0.411,2.833v5.345c0,1.629-0.232,2.218-0.401,2.646c-0.018,0.063-0.018,0.134,0.018,0.196   c0.027,0.058,0.089,0.103,0.152,0.116l2.436,0.504c0.081,0.014,0.161-0.004,0.214-0.067c0.044-0.044,0.071-0.103,0.071-0.161   c0-0.027-0.009-0.044-0.009-0.067l-0.027-0.071c-0.179-0.669-0.366-1.361-0.366-2.999c0,0,0-1.111,0-1.521   c0.473,0.103,3.793,0.786,4.114,0.853c0,0.312,0,1.74,0,1.74c0,1.673-0.17,2.137-0.384,2.731c-0.009,0.027-0.018,0.058-0.018,0.098   s0.009,0.08,0.027,0.111c0.027,0.063,0.08,0.121,0.152,0.134l2.445,0.504c0.081,0.018,0.161-0.009,0.223-0.071   c0.054-0.058,0.071-0.147,0.044-0.237c-0.214-0.647-0.401-1.209-0.401-2.998v-5.064C106.827,30.557,106.997,30.093,107.229,29.455"/>
	<path style="fill: rgb(255, 255, 255);" d="M116,38.401v-5.038c0-1.566,0.188-2.133,0.375-2.73c0.027-0.067,0.027-0.165-0.018-0.223   c-0.036-0.063-0.089-0.121-0.161-0.129l-2.463-0.241c-0.071-0.009-0.161,0.027-0.205,0.089c-0.054,0.067-0.063,0.156-0.036,0.228   c0.259,0.638,0.401,1.285,0.401,2.557v5.211c0,1.776-0.188,2.374-0.401,3.012c-0.018,0.067-0.009,0.147,0.027,0.205   c0.036,0.063,0.098,0.107,0.169,0.116l2.463,0.241c0.071,0.009,0.152-0.018,0.196-0.084c0.054-0.058,0.071-0.139,0.044-0.21   C116.081,40.226,116,39.61,116,38.401"/>
	<path style="fill: rgb(255, 255, 255);" d="M132.67,38.94v-5.88c0-1.111,0.107-1.673,0.268-2.289c0.018-0.071,0-0.147-0.045-0.201   c-0.053-0.063-0.125-0.094-0.188-0.094l-2.114,0.058c-0.063,0.004-0.143,0.04-0.179,0.098c-0.026,0.044-0.045,0.094-0.045,0.138   c0,0.022,0,0.044,0.01,0.063c0.16,0.593,0.294,1.062,0.294,3.083c0,0,0,3.311,0,4.314c-0.696-0.875-4.524-5.626-4.524-5.626   c-0.83-1.031-0.937-1.285-1.124-1.745c-0.036-0.089-0.134-0.169-0.232-0.169l-2.615,0.076c-0.098,0-0.188,0.067-0.214,0.161   c-0.009,0.022-0.018,0.053-0.018,0.076c0,0.067,0.036,0.143,0.098,0.188c0.616,0.468,0.901,0.732,1.374,1.33   c0,0.169,0,6.501,0,6.501c0,0.169-0.009,1.7-0.348,2.833c0,0.018-0.018,0.04-0.018,0.063c0,0.054,0.027,0.107,0.054,0.147   c0.044,0.063,0.116,0.094,0.196,0.089l2.32-0.062c0.071-0.005,0.143-0.036,0.188-0.103c0.027-0.036,0.044-0.089,0.044-0.129   c0-0.026-0.009-0.058-0.018-0.084c-0.393-1.031-0.428-2.646-0.428-3.114c0,0,0-2.691,0-3.654c0.705,0.875,4.238,5.31,4.238,5.31   c0.366,0.446,0.723,0.932,0.893,1.472c0.036,0.103,0.134,0.169,0.241,0.165l2.025-0.053c0.071-0.005,0.143-0.041,0.188-0.103   s0.045-0.138,0.026-0.214C132.866,41.145,132.67,40.605,132.67,38.94"/>
	<path style="fill: rgb(255, 255, 255);" d="M148.866,33.453l-2.624,0.473c-0.08,0.014-0.151,0.072-0.187,0.152   c-0.01,0.022-0.01,0.054-0.01,0.081c0,0.049,0.019,0.103,0.054,0.147c0.384,0.464,0.66,0.799,0.66,2.409c0,0,0,0.857,0,1.076   c-0.445,0.259-0.838,0.468-1.695,0.625c-1.231,0.214-2.267,0.009-2.998-0.598c-0.705-0.598-1.098-1.558-1.098-2.708   c0-2.686,1.856-4.431,3.686-4.756c1.481-0.268,2.623,0.129,3.302,0.37c0.08,0.022,0.151,0.014,0.214-0.031   c0.054-0.045,0.099-0.116,0.099-0.192v-1.825c0-0.125-0.107-0.232-0.232-0.236c-0.678-0.044-1.517-0.094-2.847,0.143   c-2.373,0.429-3.766,1.241-4.952,2.9c-0.875,1.231-1.393,2.784-1.393,4.261c0,0.719,0.152,2.512,1.509,3.654   c1.097,0.915,2.686,1.187,4.711,0.821c2.026-0.361,3.133-1,3.864-1.423c0.089-0.049,0.143-0.165,0.107-0.268   c-0.196-0.673-0.196-0.87-0.196-1.593v-1.298c0-0.981,0.169-1.495,0.276-1.829c0.026-0.081,0.018-0.192-0.036-0.25   C149.026,33.493,148.946,33.439,148.866,33.453"/>
	<path style="fill: rgb(255, 255, 255);" d="M163.046,24.172l-7.817,2.271c-0.08,0.022-0.143,0.085-0.16,0.161l-0.571,2.008   c-0.018,0.094,0.009,0.196,0.089,0.254s0.196,0.058,0.277,0.004c1.73-1.151,2.4-1.432,2.98-1.602c0,0.562,0,6.737,0,6.737   c0,1.276-0.144,2.115-0.286,2.824c0,0.018-0.009,0.036-0.009,0.049c0,0.067,0.026,0.129,0.08,0.169   c0.054,0.063,0.143,0.076,0.224,0.058l2.142-0.625c0.106-0.031,0.169-0.125,0.169-0.223c0-0.031,0-0.044-0.009-0.067   c-0.188-0.669-0.285-1.477-0.285-2.463c0,0,0-6.706,0-7.045c1.053-0.294,1.437-0.294,2.48-0.165   c0.107,0.018,0.214-0.045,0.259-0.147l0.723-1.896c0.036-0.076,0.009-0.174-0.044-0.237   C163.225,24.172,163.135,24.145,163.046,24.172"/>
	<path style="fill: rgb(255, 255, 255);" d="M177.118,21.687c-0.999-0.79-2.374-1.004-3.953-0.625c-3.927,0.955-6.015,4.734-6.015,7.099   c0,1.562,0.634,2.954,1.731,3.815c0.759,0.607,2.097,1.214,4.132,0.723c3.319-0.808,5.729-3.824,5.729-7.175   C178.742,23.9,178.153,22.499,177.118,21.687 M173.335,30.95c-0.981,0.241-1.964,0.044-2.687-0.527   c-0.571-0.441-1.231-1.316-1.231-2.949c0-1.86,1.16-4.127,3.329-4.658c0.954-0.228,1.829-0.053,2.534,0.504   c0.848,0.66,1.348,1.789,1.348,3.016C176.628,27.916,175.61,30.401,173.335,30.95z"/>
	<path style="fill: rgb(255, 255, 255);" d="M194.938,29.923c-0.16-0.442-0.356-0.986-0.356-2.642v-5.89c0-1.111,0.106-1.668,0.268-2.28   c0.018-0.071,0-0.147-0.045-0.205c-0.045-0.058-0.116-0.089-0.188-0.089l-2.105,0.04c-0.071,0-0.143,0.036-0.179,0.094   c-0.036,0.04-0.054,0.089-0.054,0.138c0,0.022,0.009,0.041,0.009,0.063c0.17,0.589,0.304,1.066,0.304,3.088c0,0,0,3.297,0,4.306   c-0.705-0.879-4.533-5.667-4.533-5.667c-0.83-1.04-0.928-1.294-1.124-1.754c-0.036-0.093-0.134-0.169-0.232-0.169l-2.605,0.045   c-0.107,0.004-0.196,0.071-0.224,0.165c-0.009,0.022-0.009,0.044-0.009,0.071c0,0.067,0.027,0.143,0.08,0.183   c0.625,0.481,0.911,0.745,1.393,1.352c0,0.165,0,6.497,0,6.497c0,0.174-0.009,1.704-0.357,2.829   c-0.009,0.022-0.009,0.049-0.009,0.067c0,0.049,0.019,0.103,0.045,0.143c0.045,0.063,0.116,0.098,0.196,0.098l2.32-0.045   c0.071,0,0.151-0.04,0.188-0.103c0.026-0.044,0.044-0.084,0.044-0.134c0-0.022-0.009-0.054-0.018-0.08   c-0.393-1.031-0.419-2.65-0.419-3.124c0,0,0-2.682,0-3.645c0.695,0.879,4.229,5.345,4.229,5.345   c0.366,0.451,0.723,0.946,0.893,1.49c0.044,0.098,0.125,0.165,0.231,0.161l2.026-0.036c0.08,0,0.151-0.036,0.196-0.098   C194.947,30.075,194.956,29.995,194.938,29.923"/>
	<polyline style="fill: rgb(255, 255, 255);" points="126.396,164.714 125.004,160.417 123.604,164.714 119.088,164.714 122.747,167.369 121.355,171.661 125.004,169.007 128.654,171.661 127.262,167.369 130.912,164.714"/>
	<polyline style="fill: rgb(255, 255, 255);" points="107.13,156.96 104.23,160.417 100.045,158.73 102.437,162.555 99.537,166.013 103.918,164.919 106.31,168.752 106.622,164.246 111.003,163.152 106.818,161.466"/>
	<polyline style="fill: rgb(255, 255, 255);" points="91.844,147.05 87.855,149.169 84.607,146.032 85.393,150.481 81.404,152.596 85.875,153.225 86.66,157.669 88.641,153.608 93.121,154.242 89.863,151.105"/>
	<polyline style="fill: rgb(255, 255, 255);" points="76.915,132.589 75.077,128.467 74.14,132.879 69.643,133.353 73.551,135.609 72.614,140.027 75.969,137.007 79.887,139.264 78.048,135.142 81.404,132.116"/>
	<polyline style="fill: rgb(255, 255, 255);" points="71.695,117.749 75.345,120.408 73.953,116.111 77.611,113.457 73.096,113.457 71.695,109.165 70.303,113.457 65.788,113.457 69.438,116.111 68.036,120.408"/>
	<polyline style="fill: rgb(255, 255, 255);" points="149.964,158.73 145.778,160.417 142.879,156.96 143.19,161.466 139.006,163.152 143.378,164.246 143.699,168.752 146.091,164.919 150.473,166.013 147.572,162.555"/>
	<polyline style="fill: rgb(255, 255, 255);" points="165.393,146.032 162.145,149.169 158.164,147.05 160.137,151.105 156.889,154.242 161.368,153.608 163.34,157.669 164.126,153.225 168.597,152.596 164.616,150.481"/>
	<polyline style="fill: rgb(255, 255, 255);" points="175.869,132.879 174.932,128.467 173.094,132.589 168.605,132.116 171.96,135.142 170.122,139.264 174.03,137.007 177.386,140.027 176.449,135.609 180.357,133.353"/>
	<polyline style="fill: rgb(255, 255, 255);" points="184.222,113.457 179.706,113.457 178.305,109.165 176.913,113.457 172.397,113.457 176.057,116.111 174.655,120.408 178.305,117.749 181.964,120.408 180.563,116.111"/>
	<path style="fill: rgb(255, 255, 255);" d="M228.679,57.497V45.241h-14.492c-3.087,0-5.586,2.499-5.586,5.586v19.837   c0,3.079,2.499,5.577,5.586,5.577h7.72v31.522h-6.541V91.125h-6.765v23.412h14.492c3.087,0,5.586-2.504,5.586-5.582V75.059   c0-3.083-2.499-5.586-5.586-5.586h-7.728V52.014h6.541v5.483"/>
	<path style="fill: rgb(255, 255, 255);" d="M96.289,95.851c2.23-0.299,4.479-0.571,6.746-0.803V53.049h-6.746"/>
	<path style="fill: rgb(255, 255, 255);" d="M72.097,59.791h6.514v39.273c2.213-0.509,4.471-0.981,6.746-1.419V59.791h6.505v-6.742H72.097"/>
	<path style="fill: rgb(255, 255, 255);" d="M62.111,53.049h-8.879c-3.07,0-5.55,2.49-5.55,5.564v50.619c2.195-0.977,4.444-1.905,6.737-2.793   V94.864c2.133-0.78,4.31-1.517,6.514-2.222v11.427c2.204-0.75,4.453-1.468,6.737-2.137v-43.32   C67.67,55.539,65.181,53.049,62.111,53.049 M60.933,86.111c-2.204,0.683-4.373,1.405-6.514,2.159V59.791h6.514V86.111z"/>
	<path style="fill: rgb(255, 255, 255);" d="M176.601,53.049h-8.879c-3.069,0-5.56,2.49-5.56,5.564v38.568c2.275,0.405,4.516,0.848,6.737,1.325   V87.378c2.195,0.451,4.373,0.933,6.515,1.45v11.208c2.284,0.575,4.524,1.191,6.746,1.838V58.613   C182.16,55.539,179.661,53.049,176.601,53.049 M175.414,82.403c-2.15-0.509-4.319-0.981-6.515-1.419V59.791h6.515V82.403z"/>
	<path style="fill: rgb(255, 255, 255);" d="M123.844,53.049h-8.87c-3.079,0-5.568,2.49-5.568,5.564v30.135c0,3.07,2.489,5.493,5.568,5.412   l8.87-0.228c3.07-0.08,5.56-2.632,5.56-5.707V58.613C129.404,55.539,126.914,53.049,123.844,53.049 M122.667,87.208   c-2.186,0.022-4.354,0.076-6.514,0.16V59.791h6.514V87.208z"/>
	<path style="fill: rgb(255, 255, 255);" d="M149.036,70.396l-6.515-17.347h-6.737v41.146c2.267,0.116,4.516,0.263,6.737,0.446V71.744   l6.515,17.348v6.175c2.275,0.263,4.515,0.553,6.746,0.879V53.049h-6.746"/>
	<polyline style="fill: rgb(255, 255, 255);" points="34.564,62.588 28.05,45.241 21.303,45.241 21.303,114.537 28.05,114.537 28.05,63.94 34.564,81.288 34.564,114.537 41.301,114.537 41.301,45.241 34.564,45.241"/>
	<path style="fill: rgb(255, 255, 255);" d="M195.277,53.049h-6.746v50.838c5.363,1.803,10.503,3.832,15.376,6.059v-7.236   c-2.803-1.223-5.685-2.383-8.63-3.48"/>
	<path style="fill: rgb(185, 158, 102);" d="M23.374,112.471c0-3.766,0-61.403,0-65.164l-2.07-2.066v69.296h6.747l-2.07-2.066   C24.873,112.471,24.48,112.471,23.374,112.471"/>
	<path style="fill: rgb(185, 158, 102);" d="M36.625,112.471c0-3.604,0-31.558,0-31.558L25.979,52.549l2.07,11.391l6.514,17.348v33.25h6.737   l-2.07-2.066C38.125,112.471,37.732,112.471,36.625,112.471"/>
	<path style="fill: rgb(185, 158, 102);" d="M36.625,47.307l-2.061-2.066v17.347l2.061,11.396C36.625,73.983,36.625,50.519,36.625,47.307"/>
	<path style="fill: rgb(185, 158, 102);" d="M49.743,106.095c0-5.515,0-47.482,0-47.482c0-0.861,0.313-1.651,0.839-2.262l-1.472-1.468   c-0.893,0.982-1.428,2.293-1.428,3.73v50.619c2.195-0.977,4.444-1.905,6.737-2.793l-2.07-1.405   C51.474,105.381,50.608,105.733,49.743,106.095"/>
	<polyline style="fill: rgb(185, 158, 102);" points="60.933,59.791 60.933,86.111 63.003,87.632 63.003,57.725 52.349,57.725 54.419,59.791"/>
	<path style="fill: rgb(185, 158, 102);" d="M63.003,101.214c0-3.418,0-11.404,0-11.404l-10.655,3.605l2.07,1.45   c2.133-0.78,4.31-1.517,6.514-2.222v11.427c2.204-0.75,4.453-1.468,6.737-2.137l-2.07-1.531   C64.734,100.665,63.869,100.938,63.003,101.214"/>
	<path style="fill: rgb(185, 158, 102);" d="M80.672,96.489c0-4.489,0-38.765,0-38.765s-4.586,0-6.514,0c0-1.111,0-1.499,0-2.61l-2.061-2.066   v6.742h6.514v39.273c2.213-0.509,4.471-0.981,6.746-1.419l-2.079-1.695C82.412,96.127,81.546,96.306,80.672,96.489"/>
	<path style="fill: rgb(185, 158, 102);" d="M83.278,57.725l2.079,2.066h6.505l-2.062-2.066C87.864,57.725,83.278,57.725,83.278,57.725"/>
	<path style="fill: rgb(185, 158, 102);" d="M98.358,93.504c0-3.984,0-34.86,0-38.389l-2.07-2.066v42.802c2.23-0.299,4.479-0.571,6.746-0.803   l-2.07-1.856C100.09,93.294,99.233,93.397,98.358,93.504"/>
	<polyline style="fill: rgb(185, 158, 102);" points="122.667,59.791 122.667,87.208 124.728,89.252 124.728,57.725 114.082,57.725 116.152,59.791"/>
	<path style="fill: rgb(185, 158, 102);" d="M123.791,91.862l-8.879,0.232c-0.919,0.022-1.785-0.308-2.437-0.941   c-0.642-0.629-0.999-1.481-0.999-2.405V58.613c0-0.968,0.393-1.838,1.026-2.472l-1.463-1.463c-1.008,1.004-1.633,2.396-1.633,3.936   v30.135c0,3.07,2.489,5.493,5.568,5.412l8.87-0.228c1.517-0.036,2.882-0.683,3.882-1.687l-1.464-1.459   C125.629,91.429,124.754,91.84,123.791,91.862"/>
	<path style="fill: rgb(185, 158, 102);" d="M137.854,92.25c0-3.355,0-33.593,0-37.135l-2.07-2.066v41.146c2.267,0.116,4.516,0.263,6.737,0.446   l-2.062-2.227C139.595,92.357,138.72,92.299,137.854,92.25"/>
	<path style="fill: rgb(185, 158, 102);" d="M151.106,93.437c0-1.812,0-4.716,0-4.716L140.46,60.353l2.062,11.391l6.515,17.348v6.175   c2.275,0.263,4.515,0.553,6.746,0.879l-2.07-2.374C152.846,93.656,151.98,93.544,151.106,93.437"/>
	<path style="fill: rgb(185, 158, 102);" d="M151.106,55.115l-2.07-2.066v17.347l2.07,11.391C151.106,81.787,151.106,58.323,151.106,55.115"/>
	<polyline style="fill: rgb(185, 158, 102);" points="175.414,59.791 175.414,82.403 177.484,85.009 177.484,57.725 166.838,57.725 168.899,59.791"/>
	<path style="fill: rgb(185, 158, 102);" d="M177.484,98.443c0-2.423,0-11.249,0-11.249l-10.646-2.356l2.062,2.539   c2.195,0.451,4.373,0.933,6.515,1.45v11.208c2.284,0.575,4.524,1.191,6.746,1.838l-2.07-2.73   C179.225,98.902,178.358,98.671,177.484,98.443"/>
	<path style="fill: rgb(185, 158, 102);" d="M164.232,95.467c0-3.136,0-36.854,0-36.854c0-0.968,0.393-1.838,1.018-2.472l-1.455-1.463   c-1.008,1.004-1.633,2.396-1.633,3.936v38.568c2.275,0.405,4.516,0.848,6.737,1.325l-2.062-2.53   C165.973,95.797,165.099,95.628,164.232,95.467"/>
	<path style="fill: rgb(185, 158, 102);" d="M190.602,102.428c0-2.655,0-43.619,0-47.313l-2.07-2.066v50.838   c5.363,1.803,10.503,3.832,15.376,6.059l-2.062-3.163C198.205,105.207,194.439,103.753,190.602,102.428"/>
	<path style="fill: rgb(185, 158, 102);" d="M223.093,112.471h-12.422c0-6.407,0-17.669,0-19.284l-2.07-2.062v23.412h14.492   c1.544,0,2.936-0.625,3.953-1.638l-1.473-1.464C224.948,112.069,224.065,112.471,223.093,112.471"/>
	<path style="fill: rgb(185, 158, 102);" d="M221.906,52.014v5.483h6.772l-2.07-2.066c-1.115,0-1.517,0-2.633,0c0-1.936,0-5.488,0-5.488h-10.672   l2.062,2.07"/>
	<path style="fill: rgb(185, 158, 102);" d="M214.187,76.241h7.72v31.522l2.069,2.065V74.175h-9.789c-1.945,0-3.516-1.58-3.516-3.511V50.827   c0-0.973,0.393-1.847,1.026-2.485l-1.464-1.464c-1.008,1.008-1.633,2.405-1.633,3.949v19.837   C208.601,73.743,211.1,76.241,214.187,76.241"/>
	<path style="fill: rgb(205, 17, 65);" d="M230.374,59.197V43.545h-16.188c-4.016,0-7.281,3.266-7.281,7.282v19.837   c0,4.011,3.266,7.277,7.281,7.277c0,0,3.953,0,6.023,0c0,2.86,0,25.272,0,28.123c-1.204,0-1.937,0-3.141,0   c0-2.543,0-16.638,0-16.638h-10.164v26.807h16.188c4.016,0,7.281-3.267,7.281-7.277V75.059c0-4.016-3.266-7.281-7.281-7.281   c0,0-3.962,0-6.023,0c0-2.396,0-11.677,0-14.073c1.204,0,1.937,0,3.141,0c0,1.874,0,5.493,0,5.493 M215.365,52.014v17.459h7.728   c3.087,0,5.586,2.503,5.586,5.586v33.896c0,3.078-2.499,5.582-5.586,5.582h-14.492V91.125h6.765v16.638h6.541V76.241h-7.72   c-3.087,0-5.586-2.499-5.586-5.577V50.827c0-3.087,2.499-5.586,5.586-5.586h14.492v12.256h-6.772v-5.483H215.365z"/>
	<path style="fill: rgb(205, 17, 65);" d="M94.593,51.349v46.456c3.329-0.481,6.71-0.892,10.137-1.218V51.349 M103.035,95.048   c-2.267,0.231-4.516,0.504-6.746,0.803V53.049h6.746V95.048z"/>
	<path style="fill: rgb(205, 17, 65);" d="M70.392,51.349v10.137c0,0,4.658,0,6.523,0c0,1.468,0,20.284,0,39.728   c3.311-0.803,6.693-1.526,10.137-2.164c0-18.517,0-36.131,0-37.564c1.856,0,6.515,0,6.515,0V51.349 M91.862,59.791h-6.505v37.854   c-2.275,0.438-4.533,0.91-6.746,1.419V59.791h-6.514v-6.742h19.766V59.791z"/>
	<path style="fill: rgb(205, 17, 65);" d="M54.419,88.27c2.142-0.754,4.31-1.477,6.514-2.159v-26.32h-6.514 M56.114,61.486   c1.205,0,1.918,0,3.124,0c0,2.798,0,21.31,0,23.389c-1.044,0.331-2.08,0.669-3.124,1.018   C56.114,82.211,56.114,64.199,56.114,61.486z"/>
	<path style="fill: rgb(205, 17, 65);" d="M62.111,51.349h-8.879c-3.998,0-7.255,3.257-7.255,7.264v53.247   c3.266-1.503,6.648-2.931,10.137-4.256c0-6.854,0-10.909,0-11.539c1.035-0.365,2.07-0.723,3.124-1.075c0,0.96,0,4.886,0,11.472   c3.292-1.174,6.666-2.258,10.137-3.253V58.613C69.375,54.606,66.118,51.349,62.111,51.349 M67.67,101.933   c-2.285,0.669-4.533,1.387-6.737,2.137V92.643c-2.204,0.705-4.381,1.441-6.514,2.222v11.574c-2.293,0.888-4.542,1.816-6.737,2.793   V58.613c0-3.074,2.48-5.564,5.55-5.564h8.879c3.07,0,5.56,2.49,5.56,5.564V101.933z"/>
	<path style="fill: rgb(205, 17, 65);" d="M168.899,80.984c2.195,0.438,4.364,0.91,6.515,1.419V59.791h-6.515 M170.595,61.486   c1.205,0,1.919,0,3.124,0c0,2.57,0,15.647,0,18.789c-1.026-0.228-2.07-0.45-3.124-0.669   C170.595,77.433,170.595,64.119,170.595,61.486z"/>
	<path style="fill: rgb(205, 17, 65);" d="M176.601,51.349h-8.879c-4.007,0-7.255,3.257-7.255,7.264v39.996   c3.436,0.589,6.817,1.267,10.128,2.021c0-6.603,0-10.333,0-11.154c1.054,0.228,2.098,0.464,3.124,0.705c0,0.616,0,4.417,0,11.186   c3.453,0.853,6.835,1.785,10.137,2.807V58.613C183.855,54.606,180.599,51.349,176.601,51.349 M182.16,101.874   c-2.222-0.646-4.462-1.263-6.746-1.838V88.828c-2.142-0.518-4.319-1-6.515-1.45v11.128c-2.222-0.478-4.462-0.92-6.737-1.325V58.613   c0-3.074,2.49-5.564,5.56-5.564h8.879c3.061,0,5.56,2.49,5.56,5.564V101.874z"/>
	<path style="fill: rgb(205, 17, 65);" d="M116.152,87.369c2.16-0.084,4.328-0.138,6.514-0.16V59.791h-6.514 M117.848,61.486   c1.205,0,1.918,0,3.114,0c0,2.793,0,21.301,0,24.054c-1.044,0.018-2.079,0.044-3.114,0.076   C117.848,82.742,117.848,64.274,117.848,61.486z"/>
	<path style="fill: rgb(205, 17, 65);" d="M123.844,51.349h-8.87c-4.007,0-7.264,3.257-7.264,7.264v30.135c0,1.945,0.768,3.761,2.142,5.104   c1.383,1.343,3.213,2.057,5.158,2.007l8.879-0.231c3.98-0.107,7.21-3.427,7.21-7.402V58.613   C131.1,54.606,127.842,51.349,123.844,51.349 M129.404,88.226c0,3.074-2.49,5.626-5.56,5.707l-8.87,0.228   c-3.079,0.081-5.568-2.342-5.568-5.412V58.613c0-3.074,2.489-5.564,5.568-5.564h8.87c3.07,0,5.56,2.49,5.56,5.564V88.226z"/>
	<path style="fill: rgb(205, 17, 65);" d="M147.34,51.349c0,0,0,5.72,0,9.691c-1.615-4.292-3.641-9.691-3.641-9.691h-9.61v44.476   c3.418,0.138,6.8,0.365,10.137,0.665c0-7.019,0-13.123,0-15.389c1.562,4.149,3.017,8.031,3.114,8.303c0,0.152,0,3.155,0,7.394   c3.427,0.361,6.81,0.803,10.138,1.325V51.349 M155.782,96.146c-2.231-0.326-4.471-0.616-6.746-0.879v-6.175l-6.515-17.348v22.898   c-2.222-0.183-4.471-0.33-6.737-0.446V53.049h6.737l6.515,17.347V53.049h6.746V96.146z"/>
	<path style="fill: rgb(205, 17, 65);" d="M32.859,43.545c0,0,0,5.716,0,9.691c-1.615-4.297-3.632-9.691-3.632-9.691h-9.628v72.688h10.146   c0,0,0-30.733,0-42.936c1.562,4.149,3.016,8.027,3.114,8.303c0,0.603,0,34.633,0,34.633h10.137V43.545 M41.301,114.537h-6.737   v-33.25L28.05,63.94v50.597h-6.747V45.241h6.747l6.514,17.347V45.241h6.737V114.537z"/>
	<path style="fill: rgb(205, 17, 65);" d="M196.974,98.032c0-11.239,0-46.684,0-46.684h-10.138v53.765c6.612,2.173,12.895,4.689,18.775,7.496   v-11.021C202.791,100.33,199.909,99.148,196.974,98.032 M203.907,109.945c-4.873-2.227-10.013-4.256-15.376-6.059V53.049h6.746   v46.18c2.945,1.098,5.827,2.258,8.63,3.48V109.945z"/>
	<path style="fill: rgb(185, 158, 102);" d="M196.571,133.437h-1.303v3.561h-0.892v-3.561h-1.294v-0.767h3.488 M202.506,136.997h-0.893v-3.444   h-0.018l-1.268,3.444h-0.839l-1.213-3.444h-0.027v3.444h-0.883v-4.327h1.525l1.018,2.828h0.018l1.044-2.828h1.535V136.997z"/>
</g>
</svg>